<svg width="101" height="67" viewBox="0 0 101 67" fill="none" xmlns="http://www.w3.org/2000/svg">
<path d="M28.9893 24.0311C28.8799 27.9429 30.6456 29.6661 30.6924 30.769C30.6719 30.9932 30.603 31.2087 30.4915 31.3975C30.3801 31.5864 30.2293 31.7431 30.0518 31.8546L28.0518 33.4056C27.7938 33.6032 27.4906 33.7167 27.1768 33.733C27.1143 33.733 25.8956 34.0432 23.9737 29.3215C22.8031 30.9358 21.313 32.2332 19.6176 33.1144C17.9222 33.9955 16.0664 34.437 14.1924 34.405C11.6456 34.5601 4.75493 32.8197 5.1143 24.7204C4.8643 18.1204 10.4424 14.0191 16.1924 14.3637C17.3018 14.3637 19.5674 14.4327 23.5362 15.4494V12.7611C23.9581 8.19453 21.2393 4.66188 16.5362 5.19608C16.1612 5.19608 13.5049 5.10992 9.37993 6.93656C8.22368 7.52246 8.08305 7.41907 7.69242 7.41907C6.53617 7.41907 7.00493 3.7141 7.2393 3.24882C8.0518 2.14594 12.8487 0.0780536 17.5362 0.112518C20.6796 -0.192697 23.8058 0.878148 26.2393 3.09373C27.2299 4.31442 27.9858 5.74401 28.4611 7.29606C28.9365 8.84811 29.1215 10.4904 29.0049 12.1235V24.0656L28.9893 24.0311ZM15.4893 29.6144C20.5518 29.5283 22.7081 26.1679 23.1924 24.3585C23.5831 22.6181 23.5205 21.5324 23.5205 19.6369C22.0049 19.2405 19.8331 18.7925 17.3331 18.7925C14.9581 18.6029 10.6456 19.7575 10.8174 24.3585C10.6299 27.2536 12.5518 29.7695 15.5049 29.6144H15.4893ZM42.1924 33.5951C40.958 33.7157 40.3956 32.7507 40.2081 31.8029L32.4268 3.42114C32.2705 2.93864 32.1768 2.4389 32.1299 1.93916C32.1144 1.83491 32.118 1.72829 32.1404 1.62557C32.1627 1.52286 32.2035 1.42611 32.2603 1.34102C32.3171 1.25593 32.3887 1.18422 32.4709 1.13009C32.5532 1.07597 32.6444 1.04052 32.7393 1.02584C32.7705 1.02584 32.4112 1.02584 36.2237 1.02584C37.5987 0.870746 38.0362 2.05978 38.1924 2.81801L43.7706 27.0813L48.9581 2.81801C49.0362 2.26657 49.4112 0.90521 50.9581 1.0603H53.6456C53.9893 1.02584 55.3799 0.97414 55.6299 2.85247L60.8487 27.4259L66.5831 2.85247C66.6612 2.47336 67.0049 0.887977 68.5674 1.0603H71.6455C71.7862 1.04307 72.6143 0.922443 72.4737 2.54229C72.4112 2.86971 73.0049 0.698419 64.2237 31.8202C64.0362 32.768 63.4737 33.733 62.2393 33.6123H59.3174C57.6143 33.8191 57.3643 31.9408 57.333 31.7512L52.1612 8.12559L47.0362 31.734C47.0049 31.9236 46.7706 33.7847 45.0518 33.5951H42.1924ZM84.9268 34.5601C84.0049 34.5601 79.6299 34.5084 75.9581 32.4405C75.5937 32.2701 75.2835 31.9842 75.0665 31.6192C74.8496 31.2541 74.7357 30.8263 74.7393 30.3899V28.5288C74.7393 27.064 75.7081 27.3397 76.1143 27.5121C77.6768 28.2186 78.6924 28.7356 80.6143 29.1664C86.3487 30.4588 88.8643 28.77 89.4737 28.3909C91.5362 27.0468 91.6924 23.9622 90.3018 22.3596C88.6612 20.8431 87.8799 20.7914 82.0049 18.7408C81.2862 18.5167 75.1768 16.3972 75.1612 9.71098C75.0674 4.85144 79.083 0.0263571 86.0205 0.060822C88.0049 0.060822 93.2705 0.767351 94.708 2.74908C94.9268 3.11096 95.0205 3.54177 95.0049 3.95535V5.69582C95.0049 6.45405 94.7549 6.8504 94.2393 6.8504C93.0362 6.6953 90.8955 4.92036 86.5518 4.98929C85.4737 4.92036 80.3174 5.14439 80.5518 9.2974C80.4893 12.5716 84.708 13.7951 85.1924 13.9329C90.8955 15.8285 92.8018 16.1387 95.0518 19.0337C97.7237 22.8765 96.2862 27.357 95.7393 28.5805C92.7549 35.0426 85.0518 34.5084 84.9112 34.5084L84.9268 34.5601ZM91.208 52.6369C80.2705 61.5461 64.3799 66.3023 50.8174 66.3023C32.5144 66.4338 14.829 59.0081 1.2393 45.4855C0.223675 44.4688 1.1143 43.0729 2.3643 43.8484C17.4413 53.3584 34.5113 58.3545 51.8799 58.3409C64.8509 58.2618 77.6799 55.357 89.6299 49.7936C91.4737 48.932 93.0362 51.1377 91.208 52.6197V52.6369ZM95.7705 46.8986C94.3643 44.9168 86.5049 45.968 82.9893 46.4333C81.9268 46.5711 81.7549 45.5544 82.708 44.7962C88.9737 39.9366 99.2549 41.3325 100.427 42.9696C101.614 44.6066 100.099 55.9628 94.2393 61.391C93.333 62.2354 92.4737 61.7874 92.8799 60.6845C94.1924 57.014 97.1612 48.8803 95.7549 46.8986H95.7705Z" fill="#FF9900"/>
</svg>
