<svg width="90" height="51" viewBox="0 0 90 51" fill="none" xmlns="http://www.w3.org/2000/svg">
<path d="M25.3674 18.9234C25.2689 21.876 26.8579 23.1767 26.9001 24.0091C26.8816 24.1783 26.8196 24.341 26.7193 24.4835C26.6191 24.6261 26.4834 24.7444 26.3236 24.8285L24.5237 25.9992C24.2915 26.1483 24.0186 26.234 23.7362 26.2463C23.6799 26.2463 22.5831 26.4804 20.8535 22.9165C19.8 24.135 18.459 25.1143 16.9332 25.7794C15.4074 26.4445 13.7373 26.7777 12.0507 26.7536C9.75865 26.8706 3.55734 25.5569 3.88076 19.4437C3.65577 14.462 8.67588 11.3664 13.8507 11.6265C14.8491 11.6265 16.888 11.6786 20.4598 12.446V10.4169C20.8394 6.97006 18.3927 4.30364 14.16 4.70686C13.8225 4.70686 11.432 4.64182 7.71967 6.02055C6.67908 6.46279 6.55253 6.38475 6.20098 6.38475C5.1604 6.38475 5.58225 3.58826 5.79318 3.23708C6.5244 2.40463 10.8414 0.843803 15.06 0.869817C17.889 0.639442 20.7024 1.44771 22.8925 3.12001C23.784 4.04138 24.4642 5.12043 24.892 6.2919C25.3198 7.46338 25.4863 8.70294 25.3814 9.93563V18.9494L25.3674 18.9234ZM13.2179 23.1376C17.7739 23.0726 19.7145 20.5363 20.1504 19.1705C20.502 17.8568 20.4457 17.0374 20.4457 15.6066C19.0817 15.3075 17.1271 14.9693 14.8772 14.9693C12.7398 14.8262 8.85868 15.6977 9.01336 19.1705C8.84462 21.3557 10.5742 23.2547 13.2319 23.1376H13.2179ZM37.2497 26.1422C36.1388 26.2333 35.6326 25.5049 35.4638 24.7895L28.461 3.36714C28.3204 3.00295 28.236 2.62575 28.1938 2.24855C28.1799 2.16986 28.1831 2.08939 28.2032 2.01186C28.2234 1.93433 28.2601 1.86131 28.3111 1.79708C28.3622 1.73286 28.4267 1.67873 28.5007 1.63787C28.5748 1.59702 28.6569 1.57027 28.7422 1.55918C28.7704 1.55918 28.4469 1.55918 31.878 1.55918C33.1155 1.44212 33.5092 2.3396 33.6499 2.9119L38.67 21.2256L43.3385 2.9119C43.4088 2.49568 43.7463 1.46813 45.1384 1.5852H47.5571C47.8665 1.55918 49.118 1.52016 49.343 2.93792L54.0396 21.4858L59.2004 2.93792C59.2707 2.65176 59.58 1.45513 60.9862 1.5852H63.7564C63.883 1.57219 64.6283 1.48114 64.5017 2.70379C64.4455 2.95092 64.9798 1.31205 57.077 24.8025C56.9083 25.5179 56.402 26.2463 55.2912 26.1553H52.6616C51.1288 26.3113 50.9038 24.8936 50.8757 24.7505L46.2212 6.91803L41.6089 24.7375C41.5808 24.8806 41.3698 26.2853 39.823 26.1422H37.2497ZM75.7091 26.8706C74.8794 26.8706 70.9421 26.8316 67.6375 25.2708C67.3096 25.1421 67.0304 24.9264 66.8352 24.6508C66.6399 24.3753 66.5374 24.0524 66.5407 23.723V22.3182C66.5407 21.2126 67.4125 21.4207 67.7781 21.5508C69.1843 22.0841 70.0984 22.4743 71.828 22.7995C76.9887 23.775 79.2527 22.5003 79.8011 22.2142C81.6572 21.1996 81.7979 18.8714 80.5464 17.6617C79.0699 16.5171 78.3668 16.4781 73.0795 14.9303C72.4326 14.7612 66.9344 13.1613 66.9204 8.11467C66.836 4.44672 70.4499 0.804783 76.6934 0.830796C78.4793 0.830796 83.2181 1.36408 84.5118 2.85987C84.7087 3.13302 84.7931 3.45819 84.779 3.77036V5.08406C84.779 5.65636 84.554 5.95552 84.09 5.95552C83.0072 5.83846 81.0807 4.49875 77.1715 4.55077C76.2012 4.49875 71.5608 4.66784 71.7717 7.8025C71.7155 10.2738 75.5122 11.1973 75.9481 11.3014C81.0807 12.7321 82.7963 12.9662 84.8212 15.1514C87.2258 18.0519 85.9321 21.4337 85.4399 22.3572C82.7541 27.2348 75.8215 26.8316 75.695 26.8316L75.7091 26.8706ZM81.3619 40.5149C71.5186 47.2395 57.2176 50.8294 45.0119 50.8294C28.5398 50.9286 12.6236 45.3238 0.393406 35.117C-0.520619 34.3496 0.28091 33.296 1.40586 33.8814C14.9746 41.0594 30.3369 44.8305 45.9681 44.8202C57.6415 44.7605 69.1871 42.568 79.9417 38.3687C81.601 37.7184 83.0072 39.3833 81.3619 40.5019V40.5149ZM85.468 36.1836C84.2025 34.6878 77.1293 35.4812 73.9654 35.8324C73.0092 35.9365 72.8545 35.169 73.7123 34.5967C79.3511 30.9288 88.6038 31.9823 89.6585 33.218C90.7272 34.4537 89.3632 43.0252 84.09 47.1224C83.2744 47.7597 82.501 47.4216 82.8666 46.5891C84.0478 43.8186 86.7195 37.6794 85.454 36.1836H85.468Z" fill="#FF9900"/>
</svg>
