<svg width="77" height="64" viewBox="0 0 77 64" fill="none" xmlns="http://www.w3.org/2000/svg">
<path d="M44.617 24.4294C44.617 21.2977 42.5197 19.5689 38.836 19.5689H32.0602V29.6584H37.774C42.1836 29.6443 44.617 27.7737 44.617 24.4294ZM69.2868 22.6156C68.0096 18.2369 67.8214 12.8662 67.9693 8.71416C68.1172 4.39211 64.9175 0.424316 60.6154 0.424316H16.4114C12.0958 0.424316 8.90959 4.40628 9.05748 8.71416C9.19192 12.8662 9.01715 18.2369 7.73996 22.6156C6.44933 27.0085 4.28484 29.786 0.722168 30.1402V34.1789C4.2714 34.5331 6.44933 37.3106 7.73996 41.7035C9.01715 46.0822 9.20536 51.4529 9.05748 55.6049C8.90959 59.927 12.1093 63.8948 16.4114 63.8948H60.602C64.9175 63.8948 68.1037 59.9128 67.9559 55.6049C67.8214 51.4529 67.9962 46.0822 69.2734 41.7035C70.564 37.3106 72.7285 34.5331 76.2777 34.1789V30.1402C72.7419 29.786 70.564 27.0085 69.2868 22.6156ZM40.1401 49.0439H26.9784V15.2752H40.0729C45.8942 15.2752 49.7123 18.5911 49.7123 23.6926C49.7123 27.2778 47.1445 30.4803 43.8641 31.033V31.2172C48.3275 31.7273 51.3256 34.9866 51.3256 39.4787C51.3256 45.4446 47.1176 49.0439 40.1401 49.0439ZM38.7957 33.6404H32.0602V44.7502H39.0915C43.6893 44.7502 46.1227 42.8088 46.1227 39.1528C46.1227 35.5109 43.6221 33.6404 38.7957 33.6404Z" fill="#7952B3"/>
</svg>
