<svg width="89" height="89" viewBox="0 0 89 89" fill="none" xmlns="http://www.w3.org/2000/svg">
<path d="M4.98161 84.1938C3.18805 84.1938 2.6666 83.3145 2.6666 81.997C2.6666 81.558 2.73208 81.0626 2.81273 80.5408C3.20563 78.2625 4.16479 76.959 6.47979 76.959C8.04553 76.959 8.80893 77.5486 8.80893 78.6195V79.1415H10.3623C10.3795 79.1415 10.3795 78.661 10.3795 78.5516C10.3795 76.9868 9.25421 75.5028 6.4822 75.5028C2.71554 75.5028 1.16669 77.2257 0.595954 80.6032C0.514272 81.0565 0.465332 81.4796 0.465332 81.9312C0.465332 83.9219 1.39554 85.7327 4.7214 85.7327C7.24836 85.7327 8.7493 84.6953 9.62919 83.4184L8.14513 82.5768C7.18356 83.854 6.13928 84.1938 4.98161 84.1938ZM15.1729 77.9059C12.1558 77.9059 10.8523 79.2094 10.4122 81.8038C10.3606 82.1041 10.3329 82.4069 10.3295 82.7103C10.3295 84.3848 11.259 85.7173 13.8346 85.7173C16.8516 85.7173 18.1727 84.3578 18.6128 81.8038C18.6617 81.4747 18.6945 81.1726 18.6945 80.8708C18.6952 79.1688 17.7336 77.9059 15.1729 77.9059ZM16.4284 81.8046C16.102 83.686 15.4017 84.2626 14.08 84.2626C13.0209 84.2626 12.4994 83.8917 12.4994 82.7797C12.4994 82.5049 12.5325 82.1758 12.5973 81.8046C12.9237 79.9378 13.5758 79.3612 14.9126 79.3612C15.989 79.3612 16.5263 79.7318 16.5263 80.8574C16.5263 81.132 16.4932 81.448 16.4284 81.8046ZM26.2785 75.6392L25.7736 78.1595C25.7412 78.3786 25.7577 78.3058 25.8563 78.5118C25.3834 78.21 24.5349 78.0103 23.9642 78.0103C21.2573 78.0103 19.7415 79.042 19.2528 81.9251C19.1957 82.2294 19.1684 82.5372 19.1711 82.8453C19.1711 84.9466 20.6383 85.7298 22.6107 85.7298C23.4434 85.7298 24.2581 85.7443 24.8933 85.2919L25.0557 86.1459H26.6214L28.4473 75.6392H26.2785ZM24.7296 83.8639C23.9965 84.2336 23.2797 84.3171 22.8396 84.3171C21.6491 84.3171 21.3231 83.7951 21.3231 82.9582C21.3231 82.6421 21.3721 82.2724 21.4379 81.8731C21.8122 79.6906 22.6441 79.3055 23.7205 79.3055C24.4208 79.3055 24.9585 79.4021 25.4651 79.636L24.7296 83.8639ZM33.209 77.9059C30.2243 77.9059 28.8234 79.0995 28.3498 81.8038C28.3002 82.1337 28.2674 82.4497 28.2674 82.7515C28.2674 84.605 29.3931 85.7173 31.8704 85.7173C33.7946 85.7173 35.2307 85.0441 35.9965 83.8084L34.3494 83.2455C33.8773 83.8491 33.2414 84.2611 32.1161 84.2611C30.9099 84.2611 30.4205 83.9878 30.4205 83.0815C30.4205 82.9027 30.437 82.643 30.4697 82.643H36.355C36.4377 81.9425 36.5342 81.4474 36.5342 81.0368C36.5342 79.6647 35.9152 77.9056 33.209 77.9056V77.9059ZM34.3336 81.2428H30.7465C31.106 80.5423 31.7081 79.4581 32.9478 79.4581C33.9093 79.4581 34.3829 79.9314 34.3829 80.7414C34.3818 80.8786 34.367 81.2428 34.3336 81.2428ZM42.8088 77.7405L43.0043 76.3397H38.4056L38.2109 77.7405H39.4172L38.1137 84.7449H36.9057L36.7113 86.1459H41.3089L41.5054 84.7449H40.2981L41.6019 77.7405H42.8088ZM52.1523 79.8418L52.7399 78.441H51.1583L50.0178 78.6392C49.3816 78.2968 48.5173 78.0397 47.7028 78.0397C45.3703 78.0397 43.382 78.988 43.382 81.1439C43.382 81.7486 43.6425 82.2367 43.9517 82.5667C43.4637 82.7858 43.0394 83.1529 43.0394 83.6479C43.0394 83.8673 43.1366 84.0919 43.333 84.2974C42.3539 84.7925 41.7525 85.6129 41.7525 86.5731C41.7525 88.4274 44.051 88.823 45.8118 88.823C48.0289 88.823 50.671 88.3964 50.671 86.0212C50.671 85.2115 50.0678 84.5789 48.3232 84.3044L45.1766 83.8093C44.8181 83.7539 44.7365 83.6578 44.7365 83.5206C44.7365 83.3145 44.8847 83.2054 45.128 83.2054L45.3403 83.2327C45.7642 83.3148 46.2536 83.3566 46.7585 83.3566C49.0256 83.3566 51.047 82.5324 51.047 80.3908C51.047 80.0884 50.9822 79.8838 50.8192 79.5539C51.0959 79.6642 51.4554 79.8426 51.6008 79.8426H52.1523V79.8418ZM47.6694 85.5246C48.2884 85.6213 48.5 85.8131 48.5 86.1564C48.5 87.2687 47.0814 87.406 46.0547 87.406C44.4893 87.406 43.9028 87.0908 43.9028 86.3897C43.9028 85.7716 44.114 85.484 44.6041 85.0441L47.6694 85.5246ZM46.9998 81.9286C46.0541 81.9286 45.5323 81.6407 45.5323 80.9535C45.5323 79.9378 46.2336 79.3473 47.4564 79.3473C48.4349 79.3473 48.9081 79.6906 48.9081 80.3624C48.9081 81.3786 48.2226 81.9286 46.9998 81.9286ZM57.9448 77.9059C57.0314 77.9059 56.217 78.2831 55.2055 78.9552L55.059 78.441H53.2648L52.0096 86.1457H54.1781L55.1242 80.3029C55.7604 79.9735 56.5424 79.4953 57.211 79.4953C58.0258 79.4953 58.3201 79.8264 58.3201 80.4576C58.3201 80.6087 58.3029 81.0565 58.2701 81.2211L57.4723 86.1457H59.6411L60.439 81.181C60.4721 80.9489 60.5045 80.5661 60.5045 80.347C60.5055 79.0411 59.7707 77.9059 57.9448 77.9059ZM64.6241 84.2156L64.6406 84.0269L65.5856 78.441H61.982L61.7549 79.8418H63.3354C63.2048 79.8418 63.1235 79.9645 63.1076 80.0751L62.4552 83.7954C62.4228 83.9744 62.4069 84.347 62.4069 84.4971C62.4069 85.4579 63.0259 86.1459 64.297 86.1459H65.4061L65.6508 84.7449H64.9501C64.7047 84.7449 64.6241 84.3801 64.6241 84.2156ZM66.0257 75.6392H63.9062C63.7755 75.6392 63.7755 75.2349 63.7597 75.3722L63.4653 77.3461C63.4485 77.4703 63.4485 77.7408 63.5791 77.7408H65.6997C65.8303 77.7408 65.8303 77.2608 65.8462 77.136L66.1405 75.6125C66.1571 75.4752 66.157 75.6392 66.0257 75.6392ZM70.4479 84.2623C69.9106 84.2623 69.6494 84.0699 69.6494 83.6587L69.6659 83.6305L70.3507 79.8418H72.8288L73.5784 78.441H70.5785L71.0835 75.3583L68.8019 75.9726L68.3935 78.441H67.0731L66.8453 79.8418H68.3776C68.2311 80.5423 68.084 80.0878 68.0681 80.2257L67.4808 83.5478C67.4484 83.6993 67.4484 83.809 67.4484 83.9457C67.4484 85.2501 68.5896 85.7382 69.9606 85.7382C71.2317 85.7382 72.2591 85.4257 73.0586 84.8618L72.0471 83.8142C71.5405 84.0745 71.1986 84.2623 70.4479 84.2623ZM78.4048 77.9059C75.4212 77.9059 74.0192 79.0995 73.546 81.8038C73.497 82.1337 73.4643 82.4497 73.4643 82.7515C73.4643 84.605 74.5892 85.7173 77.0672 85.7173C78.9914 85.7173 80.4276 85.0441 81.1927 83.8084L79.5463 83.2455C79.0741 83.8491 78.4376 84.2611 77.3119 84.2611C76.1064 84.2611 75.6163 83.9878 75.6163 83.0815C75.6163 82.9027 75.6339 82.643 75.6666 82.643H81.5522C81.6335 81.9425 81.7314 81.4474 81.7314 81.0368C81.7314 79.6647 81.112 77.9056 78.4048 77.9056V77.9059ZM79.5304 81.2428H75.9433C76.3018 80.5423 76.9042 79.4581 78.1446 79.4581C79.1062 79.4581 79.5797 79.9314 79.5797 80.7414C79.5787 80.8786 79.5628 81.2428 79.5304 81.2428ZM87.732 77.9056C86.9493 77.9056 86.2156 78.2834 85.4815 78.8725L85.3512 78.441H83.5584L82.3025 86.1457H84.4875L85.4491 80.1793C86.0202 79.8917 86.6722 79.6459 87.2919 79.6459C87.6838 79.6459 88.0581 79.5934 88.4165 79.6343L88.6953 78.0426C88.3676 77.9877 88.0415 77.9059 87.732 77.9059V77.9056ZM32.3591 70.1206C27.4237 68.3243 22.8054 63.7589 22.7944 59.0877C22.781 53.9948 26.6142 49.6709 31.3817 46.8293C30.8085 48.6526 30.4959 50.3203 31.9159 51.9512C33.2359 53.4675 35.5478 54.2043 37.7308 53.8044C42.8316 52.8642 43.0656 48.1427 40.0417 45.392C37.0518 42.6679 34.1595 39.591 35.2976 35.6406C35.8673 33.6603 37.3114 31.8054 39.1407 30.4795C37.7346 33.5909 41.7304 36.6595 44.3632 38.1879C48.9301 40.8397 53.941 42.8438 58.1402 45.9523C62.5572 49.2193 65.8189 53.6367 65.1603 58.76C64.4466 64.3132 59.2058 68.1754 53.3275 70.1252C65.7493 67.8167 78.5844 59.6991 78.8473 48.0995C79.0652 38.5564 71.2902 31.2122 61.659 27.0076L61.1559 26.7763C61.4202 27.3164 61.5067 27.7757 61.4967 28.1869C61.5829 27.8837 61.6415 27.572 61.658 27.2505C61.6557 27.6325 61.5964 28.0127 61.4815 28.3823L61.4967 28.1869C61.3537 28.6936 61.1128 29.177 60.7836 29.6179L60.9249 29.4899C59.0035 32.1733 53.8017 32.7561 51.232 29.9774C47.1011 25.5079 51.3186 20.6889 51.9086 15.9559C52.6472 10.024 48.2291 4.26539 42.7513 0.819336C45.7683 4.92877 41.7935 10.3656 38.6134 13.405C35.5299 16.3514 31.7797 18.8114 28.3757 21.4884C24.7189 24.3636 21.2035 27.3924 18.1978 30.7671C12.1865 37.5216 8.50632 46.0168 11.2108 54.4434C13.9135 62.8643 22.5766 68.2247 32.3594 70.1203L32.3591 70.1206Z" fill="#EE4323"/>
</svg>