<svg width="50" height="51" viewBox="0 0 50 51" fill="none" xmlns="http://www.w3.org/2000/svg">
<path d="M2.55938 48.1892C1.54297 48.1892 1.24746 47.6897 1.24746 46.9411C1.24746 46.6917 1.28457 46.4102 1.33027 46.1138C1.55293 44.8193 2.09648 44.0787 3.4084 44.0787C4.2957 44.0787 4.72832 44.4137 4.72832 45.0221V45.3187H5.60859C5.61836 45.3187 5.61836 45.0457 5.61836 44.9835C5.61836 44.0945 4.98066 43.2514 3.40977 43.2514C1.2752 43.2514 0.397461 44.2302 0.0740234 46.1492C0.0277344 46.4068 0 46.6471 0 46.9037C0 48.0347 0.527149 49.0636 2.41191 49.0636C3.84395 49.0636 4.69453 48.4741 5.19316 47.7487L4.35215 47.2705C3.80723 47.9962 3.21543 48.1892 2.55938 48.1892ZM8.33477 44.6167C6.625 44.6167 5.88633 45.3573 5.63691 46.8313C5.60763 47.0019 5.59197 47.174 5.59004 47.3464C5.59004 48.2977 6.1168 49.0548 7.57637 49.0548C9.28613 49.0548 10.0348 48.2824 10.2842 46.8313C10.3119 46.6443 10.3305 46.4727 10.3305 46.3012C10.3309 45.3342 9.78594 44.6167 8.33477 44.6167ZM9.04629 46.8318C8.86133 47.9007 8.46445 48.2283 7.71543 48.2283C7.11523 48.2283 6.81973 48.0176 6.81973 47.3858C6.81973 47.2297 6.83848 47.0427 6.8752 46.8318C7.06016 45.7712 7.42969 45.4436 8.1873 45.4436C8.79727 45.4436 9.10176 45.6541 9.10176 46.2937C9.10176 46.4496 9.08301 46.6292 9.04629 46.8318ZM14.6283 43.3289L14.3422 44.7608C14.3238 44.8853 14.3332 44.8439 14.3891 44.961C14.1211 44.7895 13.6402 44.6761 13.3168 44.6761C11.7828 44.6761 10.9238 45.2622 10.6469 46.9002C10.6145 47.0731 10.5991 47.248 10.6006 47.4231C10.6006 48.6169 11.432 49.0619 12.5498 49.0619C13.0217 49.0619 13.4834 49.0702 13.8434 48.8131L13.9354 49.2984H14.8227L15.8574 43.3289H14.6283ZM13.7506 48.0018C13.3352 48.2118 12.9289 48.2593 12.6795 48.2593C12.0049 48.2593 11.8201 47.9627 11.8201 47.4872C11.8201 47.3076 11.8479 47.0976 11.8852 46.8707C12.0973 45.6307 12.5687 45.4119 13.1787 45.4119C13.5756 45.4119 13.8803 45.4668 14.1674 45.5997L13.7506 48.0018ZM18.5559 44.6167C16.8645 44.6167 16.0705 45.2948 15.8021 46.8313C15.774 47.0188 15.7555 47.1983 15.7555 47.3698C15.7555 48.4229 16.3934 49.0548 17.7973 49.0548C18.8877 49.0548 19.7016 48.6723 20.1355 47.9703L19.2021 47.6504C18.9346 47.9934 18.5742 48.2275 17.9365 48.2275C17.2529 48.2275 16.9756 48.0722 16.9756 47.5573C16.9756 47.4557 16.985 47.3081 17.0035 47.3081H20.3387C20.3855 46.9101 20.4402 46.6288 20.4402 46.3955C20.4402 45.616 20.0895 44.6165 18.5559 44.6165V44.6167ZM19.1932 46.5126H17.1604C17.3641 46.1146 17.7053 45.4986 18.4078 45.4986C18.9527 45.4986 19.2211 45.7675 19.2211 46.2277C19.2205 46.3057 19.2121 46.5126 19.1932 46.5126ZM23.9961 44.5227L24.1068 43.7269H21.5008L21.3904 44.5227H22.074L21.3354 48.5023H20.6508L20.5406 49.2984H23.1461L23.2574 48.5023H22.5732L23.3121 44.5227H23.9961ZM29.291 45.7166L29.624 44.9207H28.7277L28.0814 45.0333C27.7209 44.8388 27.2311 44.6927 26.7695 44.6927C25.4477 44.6927 24.3209 45.2315 24.3209 46.4564C24.3209 46.8 24.4686 47.0773 24.6438 47.2648C24.3672 47.3893 24.1268 47.5978 24.1268 47.8791C24.1268 48.0037 24.1818 48.1314 24.2932 48.2481C23.7383 48.5294 23.3975 48.9955 23.3975 49.5411C23.3975 50.5946 24.7 50.8193 25.6979 50.8193C26.9543 50.8193 28.4516 50.577 28.4516 49.2275C28.4516 48.7675 28.1098 48.408 27.1211 48.2521L25.3379 47.9708C25.1348 47.9393 25.0885 47.8847 25.0885 47.8067C25.0885 47.6897 25.1725 47.6277 25.3104 47.6277L25.4307 47.6432C25.6709 47.6898 25.9482 47.7136 26.2344 47.7136C27.5191 47.7136 28.6646 47.2453 28.6646 46.0285C28.6646 45.8567 28.6279 45.7405 28.5355 45.553C28.6924 45.6157 28.8961 45.7171 28.9785 45.7171H29.291V45.7166ZM26.7506 48.9454C27.1014 49.0003 27.2213 49.1092 27.2213 49.3043C27.2213 49.9363 26.4174 50.0142 25.8355 50.0142C24.9484 50.0142 24.616 49.8352 24.616 49.4368C24.616 49.0857 24.7357 48.9223 25.0135 48.6723L26.7506 48.9454ZM26.3711 46.9022C25.8352 46.9022 25.5395 46.7387 25.5395 46.3482C25.5395 45.7712 25.9369 45.4356 26.6299 45.4356C27.1844 45.4356 27.4525 45.6307 27.4525 46.0124C27.4525 46.5898 27.0641 46.9022 26.3711 46.9022ZM32.5736 44.6167C32.0561 44.6167 31.5945 44.831 31.0213 45.2129L30.9383 44.9207H29.9215L29.2102 49.2982H30.4391L30.9752 45.9786C31.3357 45.7914 31.7789 45.5197 32.1578 45.5197C32.6195 45.5197 32.7863 45.7078 32.7863 46.0665C32.7863 46.1524 32.7766 46.4068 32.758 46.5002L32.3059 49.2982H33.535L33.9871 46.4775C34.0059 46.3456 34.0242 46.1281 34.0242 46.0036C34.0248 45.2617 33.6084 44.6167 32.5736 44.6167ZM36.3588 48.2016L36.3682 48.0944L36.9037 44.9207H34.8615L34.7328 45.7166H35.6285C35.5545 45.7166 35.5084 45.7863 35.4994 45.8491L35.1297 47.9629C35.1113 48.0646 35.1023 48.2763 35.1023 48.3615C35.1023 48.9074 35.4531 49.2984 36.1734 49.2984H36.802L36.9406 48.5023H36.5436C36.4045 48.5023 36.3588 48.2951 36.3588 48.2016ZM37.1531 43.3289H35.952C35.8779 43.3289 35.8779 43.0992 35.8689 43.1772L35.7021 44.2987C35.6926 44.3692 35.6926 44.5229 35.7666 44.5229H36.9684C37.0424 44.5229 37.0424 44.2502 37.0514 44.1793L37.2182 43.3137C37.2275 43.2357 37.2275 43.3289 37.1531 43.3289ZM39.6592 48.2281C39.3547 48.2281 39.2066 48.1188 39.2066 47.8852L39.216 47.8692L39.6041 45.7166H41.0084L41.4332 44.9207H39.7332L40.0193 43.1693L38.7264 43.5183L38.4949 44.9207H37.7467L37.6176 45.7166H38.4859C38.4029 46.1146 38.3195 45.8564 38.3105 45.9347L37.9777 47.8222C37.9594 47.9083 37.9594 47.9706 37.9594 48.0483C37.9594 48.7894 38.6061 49.0667 39.383 49.0667C40.1033 49.0667 40.6855 48.8891 41.1387 48.5688L40.5654 47.9736C40.2783 48.1215 40.0846 48.2281 39.6592 48.2281ZM44.1684 44.6167C42.4775 44.6167 41.683 45.2948 41.4148 46.8313C41.3871 47.0188 41.3686 47.1983 41.3686 47.3698C41.3686 48.4229 42.0061 49.0548 43.4104 49.0548C44.5008 49.0548 45.3146 48.6723 45.7482 47.9703L44.8152 47.6504C44.5477 47.9934 44.1869 48.2275 43.549 48.2275C42.8658 48.2275 42.5881 48.0722 42.5881 47.5573C42.5881 47.4557 42.598 47.3081 42.6166 47.3081H45.952C45.998 46.9101 46.0535 46.6288 46.0535 46.3955C46.0535 45.616 45.7025 44.6165 44.1684 44.6165V44.6167ZM44.8063 46.5126H42.7734C42.9766 46.1146 43.318 45.4986 44.0209 45.4986C44.5658 45.4986 44.8342 45.7675 44.8342 46.2277C44.8336 46.3057 44.8246 46.5126 44.8063 46.5126ZM49.4541 44.6165C49.0105 44.6165 48.5947 44.8312 48.1787 45.1659L48.1049 44.9207H47.0889L46.3771 49.2982H47.6154L48.1604 45.9083C48.484 45.7449 48.8535 45.6053 49.2047 45.6053C49.4268 45.6053 49.6389 45.5755 49.842 45.5987L50 44.6944C49.8143 44.6632 49.6295 44.6167 49.4541 44.6167V44.6165ZM18.0742 40.1934C15.2773 39.1728 12.6602 36.579 12.6539 33.925C12.6463 31.0314 14.8186 28.5747 17.5203 26.9603C17.1955 27.9962 17.0184 28.9437 17.823 29.8703C18.5711 30.7318 19.8812 31.1504 21.1184 30.9232C24.009 30.389 24.1416 27.7065 22.4279 26.1436C20.7336 24.596 19.0945 22.8478 19.7395 20.6033C20.0623 19.4782 20.8807 18.4243 21.9174 17.671C21.1205 19.4388 23.385 21.1822 24.877 22.0506C27.465 23.5572 30.3047 24.6959 32.6844 26.462C35.1875 28.3182 37.0359 30.8279 36.6627 33.7388C36.2582 36.8939 33.2883 39.0882 29.957 40.196C36.9965 38.8845 44.2701 34.2724 44.4191 27.6819C44.5426 22.26 40.1365 18.0873 34.6785 15.6984L34.3934 15.567C34.5432 15.8738 34.5922 16.1348 34.5865 16.3685C34.6354 16.1962 34.6686 16.0191 34.6779 15.8364C34.6766 16.0534 34.643 16.2695 34.5779 16.4794L34.5865 16.3685C34.5055 16.6563 34.369 16.931 34.1824 17.1815L34.2625 17.1088C33.1736 18.6334 30.2258 18.9644 28.7695 17.3858C26.4285 14.8463 28.8186 12.1084 29.1529 9.41927C29.5715 6.04904 27.0678 2.77724 23.9635 0.819336C25.6732 3.15415 23.4207 6.2431 21.6186 7.97001C19.8711 9.644 17.7459 11.0417 15.8168 12.5626C13.7445 14.1962 11.7523 15.917 10.049 17.8344C6.64238 21.672 4.55684 26.4986 6.08945 31.2863C7.62109 36.0707 12.5305 39.1163 18.0744 40.1932L18.0742 40.1934Z" fill="#EE4323"/>
</svg>
