<svg width="111" height="78" viewBox="0 0 111 78" fill="none" xmlns="http://www.w3.org/2000/svg">
<path d="M60.1707 35.7695H48.8098V25.5335H60.1707V35.7695ZM60.1707 0.56369H48.8098V11.0238H60.1707V0.56369ZM73.6114 25.5162H62.2504V35.7523H73.6114V25.5162ZM46.7473 13.0917H35.3863V23.4483H46.7473V13.0917ZM60.1707 13.0917H48.8098V23.4483H60.1707V13.0917ZM107.746 30.3241C105.271 28.6525 99.5645 28.0494 95.1817 28.8766C94.6145 24.7408 92.3114 21.1392 88.1176 17.8995L85.7114 16.2969L84.1129 18.7094C80.9504 23.5 80.091 31.3925 83.477 36.5967C81.9817 37.4066 79.0426 38.5095 75.1582 38.4406H0.444162C-1.05115 47.1946 1.44104 58.568 8.00666 66.3743C14.3832 73.9393 23.9395 77.7822 36.4348 77.7822C63.4879 77.7822 83.5114 65.2887 92.8785 42.5936C96.5567 42.6625 104.497 42.6108 108.571 34.8045C108.829 34.3737 109.705 32.5298 110.032 31.8578L107.746 30.3241ZM19.9004 25.5162H8.55666V35.7523H19.9176V25.5162H19.9004ZM33.3238 25.5162H21.9629V35.7523H33.3238V25.5162ZM46.7473 25.5162H35.3863V35.7523H46.7473V25.5162ZM33.3238 13.0917H21.9629V23.4483H33.3238V13.0917Z" fill="#2496ED"/>
</svg>
