<svg width="71" height="67" viewBox="0 0 71 67" fill="none" xmlns="http://www.w3.org/2000/svg">
<path d="M0.928223 0.424316V70.4243H70.9282V0.424316H0.928223ZM39.022 55.0181C39.022 61.8306 35.022 64.9399 29.1938 64.9399C23.9282 64.9399 20.8813 62.2212 19.3188 58.9243L24.6782 55.6899C25.7095 57.5181 26.647 59.0649 28.9126 59.0649C31.0688 59.0649 32.4438 58.2212 32.4438 54.9243V32.5649H39.022V55.0181ZM54.5845 64.9399C48.4751 64.9399 44.522 62.0337 42.6001 58.2212L47.9595 55.1274C49.3657 57.4243 51.2095 59.1274 54.4438 59.1274C57.1626 59.1274 58.9126 57.7681 58.9126 55.8774C58.9126 53.6274 57.1313 52.8306 54.1157 51.5024L52.4751 50.7993C47.7251 48.7837 44.5845 46.2368 44.5845 40.8774C44.5845 35.9399 48.3501 32.1899 54.2095 32.1899C58.397 32.1899 61.397 33.6431 63.5532 37.4556L58.4282 40.7368C57.3032 38.7212 56.0845 37.9243 54.1938 37.9243C52.272 37.9243 51.0532 39.1431 51.0532 40.7368C51.0532 42.7056 52.272 43.5024 55.1001 44.7368L56.7407 45.4399C62.3345 47.8306 65.4751 50.2837 65.4751 55.7837C65.4751 61.6899 60.8188 64.9399 54.5845 64.9399Z" fill="#F7DF1E"/>
</svg>
