<svg width="51" height="51" viewBox="0 0 51 51" fill="none" xmlns="http://www.w3.org/2000/svg">
<path d="M0.494141 0.194336V50.1943H50.4941V0.194336H0.494141ZM27.704 39.1899C27.704 44.0559 24.8468 46.2769 20.6839 46.2769C16.9227 46.2769 14.7464 44.335 13.6303 41.9801L17.4584 39.6698C18.195 40.9756 18.8647 42.0805 20.483 42.0805C22.0232 42.0805 23.0053 41.4778 23.0053 39.1229V23.1519H27.704V39.1899ZM38.82 46.2769C34.4562 46.2769 31.6325 44.201 30.2598 41.4778L34.0879 39.268C35.0924 40.9086 36.4093 42.1251 38.7196 42.1251C40.6616 42.1251 41.9116 41.1542 41.9116 39.8037C41.9116 38.1966 40.6392 37.6274 38.4852 36.6787L37.3133 36.1765C33.9205 34.7367 31.6772 32.9176 31.6772 29.0894C31.6772 25.5626 34.3669 22.8841 38.5522 22.8841C41.5432 22.8841 43.6861 23.922 45.2263 26.6452L41.5656 28.989C40.762 27.5492 39.8915 26.9801 38.541 26.9801C37.1682 26.9801 36.2977 27.8506 36.2977 28.989C36.2977 30.3952 37.1682 30.9644 39.1883 31.8461L40.3602 32.3484C44.3557 34.0559 46.5991 35.8082 46.5991 39.7367C46.5991 43.9555 43.2732 46.2769 38.82 46.2769Z" fill="#F7DF1E"/>
</svg>
