<svg width="71" height="71" viewBox="0 0 71 71" fill="none" xmlns="http://www.w3.org/2000/svg">
<path d="M70.3635 15.8848C70.3516 15.852 70.3375 15.82 70.3213 15.7891C70.3028 15.728 70.2793 15.6686 70.2509 15.6113C70.2298 15.5778 70.2063 15.5458 70.1805 15.5156C70.1503 15.4727 70.1174 15.4316 70.082 15.3925C70.0539 15.3652 70.0116 15.3378 69.9694 15.3105C69.9294 15.276 69.8871 15.244 69.8428 15.2148L56.2904 7.65337C56.1192 7.55736 55.9251 7.50682 55.7275 7.50682C55.5298 7.50682 55.3357 7.55736 55.1645 7.65337L41.6122 15.2284C41.5677 15.2574 41.5254 15.2894 41.4855 15.3242C41.4462 15.3491 41.4086 15.3765 41.3729 15.4062C41.3372 15.4449 41.3043 15.4861 41.2744 15.5293C41.2463 15.5566 41.2181 15.5976 41.2041 15.625C41.1763 15.6825 41.1527 15.7419 41.1337 15.8027C41.1196 15.8301 41.1055 15.8574 41.0915 15.8984C41.0645 15.9919 41.0503 16.0885 41.0493 16.1856V30.57L29.7626 36.8871V8.7199C29.7621 8.62276 29.7479 8.52615 29.7204 8.43276C29.7064 8.40541 29.6923 8.36439 29.6782 8.33704C29.6592 8.28066 29.6356 8.22581 29.6078 8.17296C29.5938 8.13194 29.5516 8.10459 29.5375 8.07725C29.5072 8.03433 29.4743 7.99323 29.439 7.95419C29.4029 7.92494 29.3654 7.89755 29.3264 7.87215C29.2861 7.83788 29.2438 7.80592 29.1997 7.77643L15.6474 0.201361C15.4762 0.105353 15.2821 0.0548096 15.0844 0.0548096C14.8868 0.0548096 14.6927 0.105353 14.5215 0.201361L0.969131 7.77643C0.924108 7.80467 0.881726 7.8367 0.842473 7.87215C0.803178 7.89712 0.765572 7.92453 0.729889 7.95419C0.694153 7.99294 0.661236 8.03406 0.631377 8.07725C0.603231 8.11827 0.575085 8.14561 0.546939 8.17296C0.518884 8.22568 0.495349 8.28056 0.476573 8.33704C0.460587 8.36812 0.44649 8.40008 0.434354 8.43276C0.407544 8.52629 0.393353 8.62281 0.392135 8.7199V53.8011C0.390351 53.9948 0.441525 54.1855 0.540428 54.3536C0.639331 54.5218 0.782415 54.6614 0.955058 54.7583L28.0457 69.9084C28.1048 69.9359 28.1659 69.9587 28.2287 69.9768C28.2568 69.9905 28.285 70.0041 28.3131 70.0178C28.5021 70.0671 28.7011 70.0671 28.8901 70.0178C28.9183 70.0041 28.9464 69.9905 28.9746 69.9905C29.0426 69.9688 29.1085 69.9414 29.1716 69.9084L56.2904 54.7583C56.463 54.6614 56.6061 54.5218 56.705 54.3536C56.8039 54.1855 56.8551 53.9948 56.8533 53.8011V39.4167L69.8287 32.1561C70.0013 32.0593 70.1444 31.9197 70.2433 31.7515C70.3422 31.5833 70.3934 31.3927 70.3916 31.199V16.1719C70.3944 16.0754 70.3849 15.979 70.3635 15.8848ZM15.0844 2.41645L26.371 8.73357L15.0844 15.0507L3.79782 8.7199L15.0844 2.41645ZM27.511 10.6205V38.1451L20.967 41.8096L16.2243 44.4622V16.9376L22.7683 13.2731L27.511 10.6205ZM27.511 67.0644L2.67197 53.1722V10.6205L7.4146 13.2731L13.9586 16.9376V46.3628C13.9605 46.4041 13.9652 46.4452 13.9727 46.4859C13.9777 46.5412 13.9871 46.596 14.0008 46.6499C14.016 46.6924 14.0348 46.7336 14.0571 46.773C14.0719 46.82 14.0907 46.8658 14.1134 46.9097C14.1393 46.9478 14.1675 46.9843 14.1978 47.0191C14.228 47.0578 14.2609 47.0943 14.2963 47.1285C14.3245 47.1559 14.3667 47.1832 14.4089 47.2106C14.449 47.2451 14.4913 47.277 14.5356 47.3063L27.511 54.4438V67.0644ZM28.6368 52.5432L17.3643 46.3491L29.1997 39.7312L42.1892 32.4706L53.4617 38.7741L45.1867 43.3683L28.6368 52.5432ZM54.6016 53.1722L29.7626 67.0644V54.4438L48.1562 44.2434L54.6016 40.661V53.1722ZM54.6016 36.8871L49.859 34.2345L43.315 30.57V18.0725L48.0576 20.7252L54.6016 24.3896V36.8871ZM55.7275 22.489L44.4409 16.1719L55.7275 9.85479L67.0141 16.1719L55.7275 22.489ZM56.8533 36.8871V24.3896L63.4114 20.7252L68.154 18.0725V30.57L56.8533 36.8871Z" fill="#FF2D20"/>
</svg>
