<svg width="89" height="89" viewBox="0 0 89 89" fill="none" xmlns="http://www.w3.org/2000/svg">
<path d="M88.586 20.0073C88.5711 19.966 88.5533 19.9257 88.5328 19.8867C88.5096 19.8098 88.4799 19.7348 88.4441 19.6626C88.4176 19.6204 88.3879 19.5801 88.3554 19.542C88.3173 19.4879 88.2758 19.4361 88.2313 19.3869C88.1958 19.3524 88.1426 19.3179 88.0894 19.2835C88.0389 19.2399 87.9856 19.1996 87.9297 19.1628L70.8479 9.63222C70.6322 9.51121 70.3875 9.44751 70.1384 9.44751C69.8893 9.44751 69.6446 9.51121 69.4289 9.63222L52.3471 19.1801C52.291 19.2166 52.2377 19.2569 52.1874 19.3007C52.1379 19.3321 52.0905 19.3667 52.0455 19.4041C52.0005 19.4529 51.959 19.5048 51.9214 19.5592C51.8859 19.5937 51.8504 19.6454 51.8327 19.6799C51.7976 19.7524 51.768 19.8273 51.744 19.9039C51.7262 19.9384 51.7085 19.9728 51.6908 20.0245C51.6568 20.1424 51.6389 20.2641 51.6375 20.3865V38.517L37.4116 46.4793V10.9765C37.4109 10.8541 37.393 10.7323 37.3584 10.6146C37.3406 10.5801 37.3229 10.5284 37.3052 10.4939C37.2811 10.4229 37.2515 10.3537 37.2165 10.2871C37.1987 10.2354 37.1455 10.201 37.1278 10.1665C37.0896 10.1124 37.0482 10.0606 37.0036 10.0114C36.9582 9.97451 36.9108 9.94 36.8617 9.90797C36.8109 9.86478 36.7576 9.8245 36.7021 9.78733L19.6203 0.239496C19.4045 0.118486 19.1598 0.0547791 18.9107 0.0547791C18.6616 0.0547791 18.4169 0.118486 18.2012 0.239496L1.11941 9.78733C1.06266 9.82293 1.00924 9.86329 0.959766 9.90797C0.910237 9.93946 0.862838 9.974 0.817861 10.0114C0.772819 10.0602 0.731329 10.112 0.693695 10.1665C0.658218 10.2182 0.622742 10.2527 0.587266 10.2871C0.551905 10.3536 0.522241 10.4228 0.498575 10.4939C0.478426 10.5331 0.460657 10.5734 0.445361 10.6146C0.411569 10.7325 0.393681 10.8541 0.392147 10.9765V67.7982C0.389898 68.0423 0.454399 68.2826 0.579059 68.4946C0.703719 68.7065 0.884067 68.8825 1.10167 69.0046L35.2475 88.1003C35.3219 88.1349 35.399 88.1637 35.4781 88.1864C35.5136 88.2037 35.5491 88.2209 35.5846 88.2381C35.8228 88.3003 36.0736 88.3003 36.3118 88.2381C36.3473 88.2209 36.3828 88.2037 36.4182 88.2037C36.504 88.1764 36.5871 88.1418 36.6666 88.1003L70.8479 69.0046C71.0655 68.8825 71.2459 68.7065 71.3705 68.4946C71.4952 68.2826 71.5597 68.0423 71.5574 67.7982V49.6676L87.912 40.5162C88.1296 40.3941 88.3099 40.2181 88.4346 40.0062C88.5592 39.7942 88.6237 39.5539 88.6215 39.3098V20.3692C88.625 20.2476 88.6131 20.1261 88.586 20.0073ZM18.9107 3.03146L33.1367 10.9937L18.9107 18.956L4.68477 10.9765L18.9107 3.03146ZM34.5735 13.3721V48.0648L26.3253 52.6837L20.3475 56.0271V21.3344L28.5957 16.7155L34.5735 13.3721ZM34.5735 84.5155L3.26572 67.0054V13.3721L9.24346 16.7155L17.4917 21.3344V58.4227C17.4941 58.4747 17.5 58.5265 17.5094 58.5778C17.5158 58.6475 17.5277 58.7167 17.5449 58.7846C17.5641 58.8382 17.5878 58.89 17.6159 58.9397C17.6345 58.999 17.6582 59.0567 17.6868 59.1121C17.7195 59.16 17.755 59.2061 17.7932 59.25C17.8313 59.2987 17.8727 59.3447 17.9174 59.3878C17.9529 59.4223 18.0061 59.4568 18.0593 59.4912C18.1098 59.5347 18.1631 59.575 18.2189 59.6119L34.5735 68.6082V84.5155ZM35.9925 66.2126L21.7843 58.4055L36.7021 50.064L53.0743 40.9126L67.2826 48.8576L56.8525 54.6484L35.9925 66.2126ZM68.7193 67.0054L37.4116 84.5155V68.6082L60.5953 55.7514L68.7193 51.236V67.0054ZM68.7193 46.4793L62.7416 43.1358L54.4934 38.517V22.7648L60.4711 26.1083L68.7193 30.7271V46.4793ZM70.1384 28.3315L55.9124 20.3692L70.1384 12.407L84.3643 20.3692L70.1384 28.3315ZM71.5574 46.4793V30.7271L79.8234 26.1083L85.8011 22.7648V38.517L71.5574 46.4793Z" fill="#FF2D20"/>
</svg>