<svg width="101" height="51" viewBox="0 0 101 51" fill="none" xmlns="http://www.w3.org/2000/svg">
<path fill-rule="evenodd" clip-rule="evenodd" d="M0.805982 46.3127H4.10599V33.7231L9.2597 44.6996C9.84346 46.019 10.6821 46.5077 12.306 46.5077C13.9298 46.5077 14.7184 46.0184 15.3215 44.6996L20.4496 33.7231V46.3127H23.7752V33.7231C23.7752 32.5012 23.2671 31.9133 22.2009 31.5955C19.6877 30.8624 18.0121 31.498 17.2508 33.1351L12.1996 43.9895L7.32521 33.1351C6.58897 31.498 4.88775 30.8624 2.34959 31.5955C1.30838 31.9133 0.800862 32.5007 0.800862 33.7231L0.800293 46.3127H0.805982ZM26.5222 36.0698H29.8478V42.9884C29.8227 43.3791 29.9747 44.2596 31.7823 44.2832C32.7211 44.3078 38.941 44.2832 38.9911 44.2832V36.0205H42.3167V47.3395C42.3167 50.1262 38.7322 50.7366 37.0617 50.7618H26.6041V48.6359H37.0885C39.221 48.4156 38.9672 47.3893 38.9672 47.0469V46.2152H31.9348C28.6598 46.1905 26.5523 44.7971 26.5279 43.2082V36.0687L26.5222 36.0698ZM97.8559 28.051C95.8258 28.0017 94.2509 28.1978 92.9309 28.7359C92.5508 28.8838 91.9409 28.8838 91.8908 29.3474C92.0939 29.5419 92.1184 29.8602 92.2965 30.1298C92.6009 30.6191 93.1346 31.2782 93.6165 31.6201C94.1502 32.0119 94.6833 32.4026 95.2409 32.745C96.2309 33.3313 97.3478 33.6738 98.3122 34.2606C98.8709 34.603 99.4291 35.043 99.9878 35.4101C100.272 35.6057 100.445 35.9241 100.8 36.0457V35.9717C100.623 35.7526 100.572 35.4348 100.395 35.1893C100.14 34.9455 99.8865 34.7247 99.6322 34.4808C98.8965 33.5275 97.9822 32.6957 96.9922 32.0119C96.1797 31.4738 94.4034 30.7407 94.0734 29.8367L94.0233 29.7873C94.5809 29.738 95.2409 29.5424 95.7746 29.3956C96.6383 29.1764 97.4246 29.2246 98.3122 29.0049C98.719 28.9063 99.1247 28.7846 99.5315 28.6625V28.4433C99.0746 28.0033 98.7446 27.4165 98.2627 27.0012C96.9683 25.9256 95.5459 24.8741 94.0734 23.9942C93.2865 23.5054 92.2709 23.1871 91.4334 22.7723C91.1278 22.6254 90.6209 22.552 90.4434 22.3077C89.9854 21.7707 89.7322 21.0611 89.4022 20.425C88.6665 19.0804 87.9553 17.5895 87.3209 16.1715C86.864 15.2181 86.5841 14.2647 86.0265 13.3847C83.4115 9.22875 80.5678 6.71104 76.2015 4.24156C75.2628 3.72815 74.1459 3.50734 72.9584 3.23886L71.0547 3.14023C70.6479 2.96928 70.2422 2.50464 69.8866 2.28438C68.4397 1.40441 64.7078 -0.502357 63.641 2.01589C62.9554 3.60487 64.6566 5.16919 65.2341 5.97628C65.6665 6.53845 66.2241 7.17404 66.5297 7.80963C66.7004 8.22495 66.7573 8.66548 66.9353 9.10546C67.341 10.181 67.7222 11.3793 68.2554 12.382C68.5398 12.8954 68.8385 13.434 69.1942 13.8981C69.3973 14.1666 69.7529 14.2894 69.8285 14.7293C69.4729 15.2186 69.4485 15.9512 69.2454 16.5632C68.331 19.3259 68.6866 22.7482 69.981 24.7766C70.3878 25.3875 71.3466 26.7327 72.6472 26.2187C73.7897 25.7787 73.5348 24.3854 73.8648 23.163C73.9416 22.8698 73.8904 22.6742 74.0423 22.4781V22.5274L75.0835 24.5563C75.8704 25.7541 77.2416 27.0012 78.3835 27.8329C78.9923 28.2729 79.4748 29.0312 80.2361 29.2997V29.2257H80.186C80.0335 29.0066 79.8048 28.9079 79.6017 28.737C79.1448 28.297 78.6373 27.7589 78.2817 27.2702C77.216 25.9015 76.2772 24.3854 75.4391 22.8211C75.0323 22.0633 74.6767 21.2321 74.3479 20.4743C74.1942 20.1806 74.1942 19.7401 73.941 19.5943C73.5598 20.1313 73.0022 20.597 72.7217 21.2567C72.2393 22.3077 72.1892 23.6035 72.0117 24.9481C71.9093 24.9727 71.9548 24.9481 71.9093 24.9974C71.0979 24.8023 70.818 23.9947 70.5136 23.3109C69.7523 21.5751 69.6249 18.7883 70.2849 16.7835C70.4624 16.2701 71.2248 14.6565 70.9204 14.1677C70.7668 13.7031 70.2604 13.4346 69.9805 13.0675C69.6505 12.6029 69.296 12.0166 69.0673 11.5032C68.4585 10.1334 68.1541 8.61836 67.4935 7.2491C67.188 6.61351 66.6554 5.95327 66.2236 5.36699C65.7411 4.70674 65.2091 4.2421 64.8279 3.46022C64.701 3.19174 64.5235 2.75121 64.7266 2.45752C64.7767 2.26191 64.8791 2.18904 65.0811 2.13973C65.4111 1.87124 66.351 2.21315 66.681 2.35889C67.6198 2.726 68.4067 3.06791 69.1936 3.58076C69.5492 3.82514 69.9304 4.28977 70.3873 4.41251H70.921C71.7334 4.58346 72.6466 4.46182 73.4074 4.68099C74.753 5.09741 75.9711 5.7078 77.0635 6.36859C80.3886 8.39755 83.131 11.2824 84.9836 14.7299C85.288 15.2921 85.4148 15.8055 85.6948 16.3923C86.2285 17.5906 86.8885 18.8125 87.4204 19.9867C87.9541 21.1356 88.4617 22.3098 89.2229 23.2632C89.6041 23.7766 91.1267 24.0451 91.8117 24.3141C92.3198 24.5333 93.1061 24.7306 93.5642 24.999C94.4267 25.5125 95.2898 26.0993 96.1017 26.6614C96.5074 26.954 97.7774 27.5655 97.853 28.0532L97.8559 28.051ZM71.9679 6.80693C71.6171 6.80394 71.2675 6.84502 70.9278 6.92912V6.97843H70.9779C71.181 7.36964 71.5366 7.63867 71.7904 7.98113L72.3747 9.15477L72.4247 9.10546C72.7803 8.86109 72.9584 8.46987 72.9584 7.8836C72.806 7.71264 72.7809 7.54114 72.654 7.37019C72.5016 7.12582 72.1716 7.00309 71.9679 6.80802V6.80693Z" fill="#00678C"/>
<path fill-rule="evenodd" clip-rule="evenodd" d="M44.8508 46.3127H54.3958C55.5127 46.3127 56.5795 46.0935 57.4421 45.7017C58.889 45.0662 59.5746 44.2114 59.5746 43.0865V40.7398C59.5746 39.8357 58.7877 38.9793 57.2145 38.393C56.402 38.0999 55.3864 37.9284 54.3964 37.9284H50.3852C49.0396 37.9284 48.4052 37.5366 48.2271 36.6819C48.202 36.5843 48.202 36.4862 48.202 36.3887V34.946C48.202 34.8721 48.202 34.7751 48.2271 34.6776C48.4046 34.0173 48.7602 33.8458 49.934 33.7242H59.7071V31.5966H50.4159C49.0703 31.5966 48.3597 31.6706 47.7247 31.8662C45.7697 32.4524 44.9066 33.3817 44.9066 35.0189V36.878C44.9066 38.319 46.5822 39.5426 49.4253 39.8357C49.7297 39.8603 50.0597 39.8604 50.3897 39.8604H53.8172C53.9441 39.8604 54.0704 39.8604 54.1717 39.885C55.2129 39.9825 55.6697 40.1535 55.9741 40.5195C56.1773 40.7151 56.2285 40.8866 56.2285 41.1069V42.9643C56.2285 43.1835 56.076 43.4783 55.7716 43.7221C55.4672 43.9659 54.9836 44.1374 54.3492 44.1621C54.2223 44.1621 54.1472 44.1867 54.0192 44.1867H44.8508V46.3127ZM80.2378 42.6219C80.2378 44.7971 81.9447 46.019 85.3414 46.2645C85.6714 46.2891 85.9758 46.3127 86.3058 46.3127H94.937V44.1867H86.2301C84.2996 44.1867 83.5639 43.7221 83.5639 42.5978V31.5966H80.2315V42.6224L80.2378 42.6219ZM61.6809 42.7189V35.1411C61.6809 33.2097 63.1022 32.0355 65.8702 31.6695C66.1746 31.6448 66.479 31.6201 66.7578 31.6201H73.0528C73.3828 31.6201 73.6628 31.6448 73.9928 31.6695C76.7597 32.0355 78.1553 33.2091 78.1553 35.1411V42.7189C78.1553 44.2832 77.5721 45.1149 76.2004 45.6776L79.4492 48.5126H75.6166L72.9766 46.2152L70.3104 46.362H66.7566C66.1055 46.3589 65.4573 46.277 64.8273 46.1182C62.7221 45.5549 61.6809 44.4799 61.6809 42.7189ZM65.2597 42.549C65.2597 42.6465 65.3166 42.7435 65.3365 42.8668C65.514 43.7462 66.3766 44.2355 67.6966 44.2355H70.6928L67.9515 41.8394H71.784L74.1953 43.9424C74.6533 43.6974 74.9321 43.355 75.0334 42.915C75.059 42.8175 75.059 42.6958 75.059 42.5972V35.3362C75.059 35.2386 75.059 35.1416 75.0334 35.043C74.8559 34.2124 73.9933 33.7483 72.6984 33.7483H67.6971C66.2247 33.7483 65.2603 34.3592 65.2603 35.3362L65.2597 42.549Z" fill="#CE8B2C"/>
</svg>
