<svg width="140" height="70" viewBox="0 0 140 70" fill="none" xmlns="http://www.w3.org/2000/svg">
<path fill-rule="evenodd" clip-rule="evenodd" d="M0.0499572 63.7561H4.66997V46.1325L11.8852 61.498C12.7024 63.345 13.8765 64.0291 16.1499 64.0291C18.4233 64.0291 19.5273 63.3442 20.3717 61.498L27.551 46.1325V63.7561H32.2069V46.1325C32.2069 44.4221 31.4955 43.5991 30.0028 43.1542C26.4844 42.128 24.1386 43.0177 23.0728 45.3095L16.001 60.504L9.17688 45.3095C8.14614 43.0177 5.76444 42.128 2.21101 43.1542C0.753315 43.5991 0.0427883 44.4213 0.0427883 46.1325L0.0419922 63.7561H0.0499572ZM36.0526 49.4176H40.7085V59.1026C40.6734 59.6495 40.8861 60.8821 43.4168 60.9151C44.7311 60.9496 53.439 60.9151 53.5091 60.9151V49.3486H58.165V65.1934C58.165 69.0944 53.1467 69.9489 50.808 69.9842H36.1673V67.0082H50.8454C53.8309 66.6998 53.4756 65.2632 53.4756 64.7839V63.6195H43.6302C39.0453 63.585 36.0948 61.6345 36.0606 59.4102V49.4161L36.0526 49.4176ZM135.92 38.1925C133.078 38.1234 130.873 38.398 129.025 39.1512C128.493 39.3583 127.639 39.3583 127.569 40.0072C127.853 40.2795 127.887 40.7251 128.137 41.1025C128.563 41.7874 129.31 42.7101 129.985 43.1888C130.732 43.7372 131.478 44.284 132.259 44.7634C133.645 45.5841 135.209 46.0635 136.559 46.885C137.341 47.3643 138.122 47.9803 138.905 48.4941C139.303 48.768 139.544 49.2136 140.042 49.3839V49.2803C139.793 48.9735 139.722 48.5287 139.474 48.185C139.118 47.8437 138.763 47.5346 138.407 47.1933C137.377 45.8587 136.097 44.6944 134.711 43.7372C133.573 42.984 131.086 41.9577 130.624 40.6921L130.554 40.6231C131.335 40.5541 132.259 40.2803 133.006 40.0747C134.215 39.7679 135.316 39.8354 136.559 39.5278C137.128 39.3898 137.696 39.2195 138.266 39.0484V38.7416C137.626 38.1257 137.164 37.3043 136.489 36.7229C134.677 35.2172 132.686 33.7454 130.624 32.5135C129.523 31.8294 128.101 31.3837 126.928 30.8031C126.501 30.5976 125.791 30.4948 125.542 30.1527C124.901 29.401 124.547 28.4077 124.085 27.5172C123.055 25.635 122.059 23.548 121.171 21.563C120.531 20.2284 120.139 18.8938 119.359 17.662C115.698 11.8442 111.717 8.31981 105.604 4.8629C104.289 4.14422 102.726 3.83511 101.063 3.45928L98.3981 3.32122C97.8286 3.08191 97.2606 2.43149 96.7628 2.12315C94.7372 0.891339 89.5126 -1.77785 88.019 1.74732C87.0592 3.97164 89.4409 6.16145 90.2494 7.29125C90.8548 8.0782 91.6354 8.96793 92.0631 9.85766C92.3021 10.4391 92.3818 11.0557 92.6311 11.6716C93.199 13.1773 93.7327 14.8547 94.4791 16.2583C94.8774 16.977 95.2956 17.731 95.7934 18.3807C96.0778 18.7565 96.5756 18.9283 96.6815 19.5442C96.1837 20.2291 96.1495 21.2546 95.8651 22.1114C94.585 25.9786 95.0829 30.7694 96.895 33.6088C97.4646 34.464 98.8068 36.347 100.628 35.6276C102.227 35.0117 101.87 33.0612 102.332 31.35C102.44 30.9396 102.368 30.6658 102.581 30.3912V30.4603L104.039 33.3005C105.14 34.9772 107.06 36.7229 108.659 37.8872C109.511 38.5031 110.186 39.5646 111.252 39.9405V39.8369H111.182C110.969 39.5301 110.648 39.3921 110.364 39.1528C109.724 38.5368 109.014 37.7836 108.516 37.0995C107.024 35.1835 105.71 33.0612 104.536 30.8714C103.967 29.8106 103.469 28.647 103.009 27.5863C102.794 27.1752 102.794 26.5585 102.439 26.3545C101.905 27.1061 101.125 27.7581 100.732 28.6816C100.057 30.1527 99.9865 31.9667 99.7379 33.8489C99.5946 33.8834 99.6583 33.8489 99.5946 33.9179C98.4587 33.6449 98.0668 32.5143 97.6406 31.5571C96.5748 29.1272 96.3964 25.2262 97.3204 22.4197C97.5689 21.701 98.6363 19.4422 98.2101 18.758C97.9951 18.1076 97.2861 17.7318 96.8942 17.2179C96.4322 16.5674 95.936 15.7467 95.6158 15.0281C94.7634 13.1105 94.3373 10.9898 93.4125 9.07301C92.9847 8.18328 92.2392 7.25904 91.6346 6.43834C90.9591 5.51409 90.2143 4.86367 89.6806 3.76915C89.503 3.39332 89.2545 2.77664 89.5389 2.36553C89.6089 2.0917 89.7523 1.98969 90.0351 1.92066C90.4971 1.54483 91.813 2.02344 92.275 2.22746C93.5893 2.74136 94.691 3.21997 95.7926 3.93789C96.2904 4.27998 96.8241 4.9304 97.4638 5.10221H98.2109C99.3484 5.34152 100.627 5.17124 101.692 5.47805C103.576 6.06097 105.281 6.91542 106.811 7.84043C111.466 10.6807 115.305 14.719 117.899 19.545C118.325 20.3319 118.502 21.0506 118.894 21.8721C119.641 23.5495 120.565 25.2599 121.31 26.9036C122.057 28.5121 122.768 30.1558 123.834 31.4904C124.367 32.209 126.499 32.5849 127.458 32.9615C128.169 33.2683 129.27 33.5444 129.911 33.9202C131.119 34.6389 132.327 35.4604 133.464 36.2473C134.032 36.6569 135.81 37.5129 135.916 38.1955L135.92 38.1925ZM99.6766 8.45403C99.1856 8.44985 98.6961 8.50735 98.2205 8.62508V8.69411H98.2906C98.575 9.24175 99.0728 9.61835 99.4281 10.0977L100.246 11.7407L100.316 11.6716C100.814 11.3295 101.063 10.7819 101.063 9.9612C100.85 9.7219 100.815 9.48182 100.637 9.24252C100.424 8.90043 99.9618 8.72862 99.6766 8.45557V8.45403Z" fill="#00678C"/>
<path fill-rule="evenodd" clip-rule="evenodd" d="M61.7126 63.7561H75.0756C76.6393 63.7561 78.1328 63.4493 79.3404 62.9009C81.366 62.0111 82.3259 60.8146 82.3259 59.2399V55.9548C82.3259 54.6893 81.2242 53.4905 79.0218 52.6698C77.8843 52.2594 76.4624 52.0193 75.0764 52.0193H69.4607C67.5769 52.0193 66.6887 51.4709 66.4394 50.2744C66.4044 50.1379 66.4044 50.0006 66.4044 49.864V47.8445C66.4044 47.741 66.4044 47.6052 66.4394 47.4687C66.6879 46.5444 67.1858 46.3044 68.8291 46.1341H82.5115V43.1558H69.5037C67.6199 43.1558 66.625 43.2593 65.736 43.5332C62.9991 44.3539 61.7907 45.6547 61.7907 47.9465V50.549C61.7907 52.5662 64.1366 54.2789 68.1169 54.6893C68.5431 54.7238 69.0051 54.7238 69.4671 54.7238H74.2655C74.4432 54.7238 74.62 54.7238 74.7618 54.7583C76.2195 54.8948 76.8591 55.1341 77.2853 55.6465C77.5697 55.9203 77.6413 56.1604 77.6413 56.4687V59.0689C77.6413 59.3757 77.4279 59.7884 77.0017 60.1297C76.5756 60.471 75.8985 60.7111 75.0103 60.7456C74.8327 60.7456 74.7275 60.7801 74.5483 60.7801H61.7126V63.7561ZM111.254 58.5895C111.254 61.6345 113.644 63.345 118.399 63.6886C118.861 63.7231 119.288 63.7561 119.75 63.7561H131.833V60.7801H119.644C116.941 60.7801 115.911 60.1297 115.911 58.5558V43.1558H111.246V58.5903L111.254 58.5895ZM85.2747 58.7253V48.1176C85.2747 45.4139 87.2645 43.7702 91.1398 43.2578C91.5659 43.2233 91.9921 43.1888 92.3824 43.1888H101.195C101.657 43.1888 102.049 43.2233 102.511 43.2578C106.385 43.7702 108.339 45.4131 108.339 48.1176V58.7253C108.339 60.9151 107.522 62.0794 105.602 62.8671L110.15 66.8356H104.785L101.089 63.6196L97.3561 63.8251H92.3808C91.4691 63.8207 90.5616 63.7061 89.6797 63.4838C86.7324 62.6953 85.2747 61.1904 85.2747 58.7253ZM90.2851 58.4875C90.2851 58.624 90.3647 58.7598 90.3926 58.9324C90.6411 60.1634 91.8487 60.8484 93.6967 60.8484H97.8914L94.0535 57.4942H99.4191L102.795 60.438C103.436 60.0952 103.826 59.6158 103.968 58.9999C104.004 58.8633 104.004 58.6931 104.004 58.555V48.3906C104.004 48.2541 104.004 48.1183 103.968 47.9803C103.72 46.8175 102.512 46.1678 100.699 46.1678H93.6975C91.636 46.1678 90.2859 47.023 90.2859 48.3906L90.2851 58.4875Z" fill="#CE8B2C"/>
</svg>
