<svg width="96" height="51" viewBox="0 0 96 51" fill="none" xmlns="http://www.w3.org/2000/svg">
<path d="M47.7415 3.4277C73.1836 3.4277 92.7477 14.1526 92.7477 25.9322C92.7477 37.7117 73.1688 48.4366 47.7415 48.4366C22.2993 48.4366 2.7352 37.7117 2.7352 25.9322C2.7352 14.1526 22.3141 3.4277 47.7415 3.4277ZM47.7415 0.932159C21.5125 0.932159 0.241455 12.1175 0.241455 25.9322C0.241455 39.7468 21.5125 50.9322 47.7415 50.9322C73.9704 50.9322 95.2415 39.7468 95.2415 25.9322C95.2415 12.1175 73.9704 0.932159 47.7415 0.932159ZM32.6305 23.9268C31.4579 29.9429 27.3165 29.319 22.225 29.319L24.2586 18.8317C29.8993 18.8317 33.729 18.2227 32.6305 23.9268ZM14.6993 39.9399H20.1469L21.4383 33.2851C27.5391 33.2851 31.3243 33.7307 34.8274 30.4479C38.7016 26.8828 39.711 20.54 36.95 17.3612C35.5102 15.6975 33.1946 14.8805 30.0477 14.8805H19.5532L14.6993 39.9399ZM42.2641 8.21083H47.6821L46.3907 14.8656C51.0665 14.8656 55.4008 14.524 57.4938 16.455C59.6907 18.4752 58.6368 21.0599 56.2618 33.2554H50.7696C53.0555 21.461 53.486 20.4806 52.6547 19.5893C51.8532 18.7278 50.0274 18.906 45.6188 18.906L42.8282 33.2554H37.4102L42.2641 8.21083ZM75.2024 23.9268C74.0149 30.032 69.7547 29.319 64.7969 29.319L66.8305 18.8317C72.5008 18.8317 76.3008 18.2227 75.2024 23.9268ZM57.2711 39.9399H62.7336L64.0251 33.2851C70.4376 33.2851 73.9852 33.6565 77.4141 30.4479C81.2883 26.8828 82.2977 20.54 79.5368 17.3612C78.0969 15.6975 75.7813 14.8805 72.6344 14.8805H62.1399L57.2711 39.9399Z" fill="#777BB4"/>
</svg>
