<svg width="101" height="59" viewBox="0 0 101 59" fill="none" xmlns="http://www.w3.org/2000/svg">
<path d="M50.5171 3.82721C77.2983 3.82721 97.8921 16.269 97.8921 29.9343C97.8921 43.5996 77.2827 56.0414 50.5171 56.0414C23.7358 56.0414 3.14209 43.5996 3.14209 29.9343C3.14209 16.269 23.7515 3.82721 50.5171 3.82721ZM50.5171 0.932159C22.9077 0.932159 0.51709 13.9082 0.51709 29.9343C0.51709 45.9605 22.9077 58.9365 50.5171 58.9365C78.1265 58.9365 100.517 45.9605 100.517 29.9343C100.517 13.9082 78.1265 0.932159 50.5171 0.932159ZM34.6108 27.608C33.3765 34.5871 29.0171 33.8633 23.6577 33.8633L25.7983 21.6972C31.7358 21.6972 35.7671 20.9907 34.6108 27.608ZM15.7358 46.1845H21.4702L22.8296 38.4644C29.2515 38.4644 33.2358 38.9813 36.9233 35.173C41.0015 31.0372 42.064 23.679 39.1577 19.9912C37.6421 18.0612 35.2046 17.1134 31.8921 17.1134H20.8452L15.7358 46.1845ZM44.7515 9.37605H50.4546L49.0952 17.0962C54.0171 17.0962 58.5796 16.6998 60.7827 18.94C63.0952 21.2837 61.9858 24.2821 59.4858 38.4299H53.7046C56.1108 24.7474 56.564 23.61 55.689 22.5761C54.8452 21.5766 52.9233 21.7834 48.2827 21.7834L45.3452 38.4299H39.6421L44.7515 9.37605ZM79.4233 27.608C78.1733 34.6905 73.689 33.8633 68.4702 33.8633L70.6108 21.6972C76.5796 21.6972 80.5796 20.9907 79.4233 27.608ZM60.5483 46.1845H66.2983L67.6577 38.4644C74.4077 38.4644 78.1421 38.8952 81.7515 35.173C85.8296 31.0372 86.8921 23.679 83.9858 19.9912C82.4702 18.0612 80.0327 17.1134 76.7202 17.1134H65.6733L60.5483 46.1845Z" fill="#777BB4"/>
</svg>