<svg width="55" height="51" viewBox="0 0 55 51" fill="none" xmlns="http://www.w3.org/2000/svg">
<g clip-path="url(#clip0_64_10)">
<path d="M44.6392 17.2201C44.0705 17.0213 43.5019 16.8334 42.9332 16.6567C43.028 16.248 43.1122 15.8393 43.1964 15.4306C44.4918 8.8469 43.6388 3.55567 40.7638 1.81033C37.9942 0.142322 33.4764 1.87661 28.906 6.05216C28.4532 6.46088 28.0109 6.89169 27.5897 7.32248C27.3053 7.0353 27.0104 6.74808 26.7156 6.47192C21.924 2.00917 17.1219 0.131277 14.247 1.88766C11.4878 3.56672 10.6665 8.54863 11.8248 14.7788C11.9407 15.3974 12.0671 16.005 12.2145 16.6236C11.5405 16.8224 10.877 17.0434 10.2557 17.2753C4.63222 19.3189 0.598877 22.5445 0.598877 25.8805C0.598877 29.327 4.8955 32.7845 10.7402 34.8833C11.2141 35.049 11.6879 35.2147 12.1724 35.3583C12.0144 36.0211 11.8775 36.6729 11.7511 37.3467C10.6454 43.4774 11.5089 48.3379 14.268 50.0059C17.1114 51.7291 21.8924 49.9617 26.5471 45.6867C26.9157 45.3443 27.2842 44.9908 27.6528 44.6152C28.1162 45.0902 28.6006 45.5431 29.085 45.985C33.5923 50.05 38.0469 51.696 40.7954 50.028C43.6388 48.3047 44.5655 43.0798 43.3649 36.717C43.2702 36.231 43.1649 35.7339 43.0491 35.2257C43.386 35.1263 43.7125 35.0159 44.0389 34.9054C50.1153 32.7956 54.5172 29.3822 54.5172 25.8805C54.5172 22.5334 50.368 19.2857 44.6392 17.2201ZM30.3909 7.84171C34.3084 4.26264 37.9626 2.85974 39.6265 3.86497C41.4062 4.93648 42.0907 9.26665 40.9745 14.9556C40.9008 15.3311 40.827 15.6957 40.7322 16.0602C38.3943 15.5079 36.0249 15.1102 33.6449 14.8893C32.2759 12.8347 30.7805 10.8684 29.1587 9.02364C29.5695 8.61492 29.9696 8.22831 30.3909 7.84171ZM18.2066 31.6136C18.7436 32.5746 19.2913 33.5357 19.8705 34.4746C18.2277 34.2868 16.5953 34.0107 14.9841 33.6461C15.4475 32.0554 16.0267 30.4095 16.7007 28.7305C17.1851 29.7025 17.6801 30.6636 18.2066 31.6136ZM15.0157 18.3247C16.5321 17.9713 18.1434 17.684 19.8178 17.4631C19.2597 18.38 18.712 19.3189 18.1961 20.2689C17.6801 21.2079 17.1745 22.1689 16.7007 23.141C16.0372 21.495 15.4791 19.8823 15.0157 18.3247ZM17.9012 25.9357C18.5962 24.4113 19.3544 22.92 20.1548 21.4509C20.9552 19.9817 21.8187 18.5567 22.7243 17.1538C24.304 17.0323 25.9152 16.966 27.5581 16.966C29.2008 16.966 30.8226 17.0323 32.3918 17.1538C33.2869 18.5457 34.1398 19.9707 34.9507 21.4288C35.7616 22.8869 36.5199 24.3782 37.236 25.8915C36.5304 27.4159 35.7722 28.9183 34.9613 30.3985C34.1609 31.8677 33.3079 33.2927 32.4128 34.7066C30.8437 34.8281 29.2114 34.8833 27.5581 34.8833C25.9047 34.8833 24.304 34.8281 22.7559 34.7287C21.8398 33.3258 20.9762 31.8897 20.1653 30.4206C19.3544 28.9514 18.6067 27.4601 17.9012 25.9357ZM36.92 31.5915C37.4571 30.6194 37.9626 29.6363 38.4575 28.6421C39.1315 30.2438 39.7212 31.8677 40.2373 33.5357C38.605 33.9223 36.9516 34.2206 35.2878 34.4194C35.8564 33.4915 36.3935 32.5415 36.92 31.5915ZM38.4365 23.141C37.9415 22.1689 37.4361 21.1968 36.9095 20.2468C36.3935 19.3079 35.8564 18.38 35.2983 17.4631C36.9937 17.684 38.6155 17.9823 40.132 18.3468C39.6475 19.9817 39.0789 21.5724 38.4365 23.141ZM27.5791 10.7138C28.6849 11.9731 29.7274 13.2986 30.6962 14.6684C28.6111 14.569 26.5155 14.569 24.4304 14.6684C25.4624 13.2434 26.526 11.9178 27.5791 10.7138ZM15.3632 3.9423C17.1324 2.85974 21.0605 4.40624 25.1991 8.25043C25.4624 8.49344 25.7256 8.75851 25.9995 9.02364C24.3672 10.8684 22.8612 12.8347 21.4817 14.8893C19.1017 15.1102 16.7428 15.4968 14.4049 16.0381C14.268 15.4748 14.1522 14.9004 14.0364 14.3259C13.0464 8.97947 13.6993 4.94752 15.3632 3.9423ZM12.7832 33.0607C12.3408 32.9281 11.9091 32.7845 11.4773 32.6299C9.23426 31.8897 6.68574 30.7188 4.84284 29.1834C3.77922 28.4101 3.06312 27.2171 2.86303 25.8805C2.86303 23.859 6.1908 21.2741 10.9929 19.5177C11.5931 19.2968 12.204 19.098 12.8148 18.9102C13.5309 21.3073 14.3944 23.6602 15.3948 25.9357C14.3838 28.2444 13.5098 30.6304 12.7832 33.0607ZM25.0622 43.8861C23.3246 45.5541 21.3132 46.8797 19.1228 47.7856C17.9538 48.371 16.6059 48.4263 15.4054 47.9291C13.7309 46.9129 13.0359 43.0135 13.9837 37.7665C14.0995 37.1479 14.2259 36.5293 14.3733 35.9217C16.7323 36.4519 19.1123 36.8165 21.5238 37.0042C22.9139 39.0699 24.4409 41.0472 26.0732 42.9031C25.7362 43.2455 25.3992 43.5768 25.0622 43.8861ZM27.6423 41.2019C26.5681 39.9868 25.494 38.6391 24.4514 37.192C25.4624 37.2362 26.5049 37.2583 27.5581 37.2583C28.6427 37.2583 29.7064 37.2362 30.7594 37.181C29.7906 38.5839 28.748 39.9205 27.6423 41.2019ZM41.4062 44.5158C41.3114 45.8634 40.6796 47.1227 39.6686 47.9733C37.9942 48.9896 34.4242 47.664 30.5699 44.1955C30.1276 43.7978 29.6853 43.367 29.2324 42.9251C30.8437 41.0582 32.3286 39.0809 33.6765 37.0042C36.0881 36.7943 38.4891 36.4077 40.8586 35.8443C40.9639 36.2973 41.0587 36.7502 41.1429 37.192C41.659 39.5781 41.7432 42.0635 41.4062 44.5158ZM43.3228 32.6409C43.028 32.7403 42.7331 32.8397 42.4277 32.9281C41.6905 30.52 40.7849 28.1671 39.7423 25.8805C40.7533 23.627 41.6063 21.3073 42.3224 18.9323C42.87 19.098 43.3965 19.2747 43.902 19.4515C48.8094 21.2189 52.2531 23.8479 52.2531 25.8584C52.2531 28.0235 48.5778 30.8183 43.3228 32.6409ZM27.5581 30.984C30.2224 30.984 32.3812 28.7194 32.3812 25.9247C32.3812 23.1299 30.2224 20.8654 27.5581 20.8654C24.8937 20.8654 22.7349 23.1299 22.7349 25.9247C22.7349 28.7194 24.8937 30.984 27.5581 30.984Z" fill="#61DAFB"/>
</g>
<defs>
<clipPath id="clip0_64_10">
<rect width="55" height="50" fill="white" transform="translate(0 0.819336)"/>
</clipPath>
</defs>
</svg>
