<svg width="90" height="78" viewBox="0 0 90 78" fill="none" xmlns="http://www.w3.org/2000/svg">
<path d="M73.046 25.5852C72.1154 25.275 71.1849 24.982 70.2543 24.7063C70.4094 24.0687 70.5473 23.4311 70.6851 22.7935C72.8047 12.523 71.4089 4.26867 66.7044 1.54595C62.1723 -1.05615 54.7796 1.64934 47.3007 8.1632C46.5597 8.8008 45.836 9.47286 45.1467 10.1449C44.6814 9.69689 44.1989 9.24884 43.7164 8.81803C35.8756 1.85613 28.0177 -1.07338 23.3132 1.66658C18.7983 4.28591 17.4542 12.0577 19.3497 21.7768C19.5393 22.7418 19.7461 23.6896 19.9873 24.6546C18.8845 24.9648 17.7988 25.3095 16.7821 25.6713C7.58 28.8593 0.97998 33.8912 0.97998 39.0954C0.97998 44.4719 8.01081 49.8657 17.5748 53.1398C18.3503 53.3983 19.1257 53.6568 19.9184 53.8808C19.6599 54.9148 19.4359 55.9315 19.2291 56.9827C17.4197 66.5466 18.8328 74.1289 23.3477 76.731C28.0004 79.4193 35.8239 76.6621 43.4407 69.9931C44.0438 69.4589 44.6469 68.9075 45.2501 68.3216C46.0083 69.0626 46.801 69.7691 47.5937 70.4584C54.9692 76.7999 62.2585 79.3676 66.7561 76.7655C71.4089 74.0772 72.9253 65.9263 70.9608 56.0004C70.8058 55.2422 70.6334 54.4667 70.4439 53.674C70.9953 53.5189 71.5295 53.3466 72.0637 53.1743C82.0068 49.8829 89.21 44.5581 89.21 39.0954C89.21 33.874 82.4204 28.8076 73.046 25.5852ZM49.7305 10.9549C56.141 5.37155 62.1206 3.18303 64.8433 4.75118C67.7556 6.42273 68.8757 13.1778 67.0491 22.0525C66.9285 22.6384 66.8078 23.2071 66.6527 23.7758C62.8271 22.9142 58.9498 22.2938 55.0553 21.9491C52.8151 18.7439 50.3681 15.6765 47.7143 12.7987C48.3864 12.1611 49.0412 11.558 49.7305 10.9549ZM29.7926 48.039C30.6714 49.5382 31.5675 51.0375 32.5153 52.5022C29.8271 52.2093 27.156 51.7785 24.5195 51.2098C25.2777 48.7283 26.2255 46.1607 27.3284 43.5414C28.121 45.0578 28.931 46.557 29.7926 48.039ZM24.5712 27.3084C27.0526 26.757 29.6892 26.3089 32.4292 25.9643C31.5158 27.3946 30.6197 28.8593 29.7754 30.3413C28.931 31.8061 28.1038 33.3053 27.3284 34.8218C26.2427 32.2541 25.3294 29.7382 24.5712 27.3084ZM29.2929 39.1816C30.4302 36.8035 31.6709 34.4771 32.9806 32.1852C34.2903 29.8933 35.7033 27.6703 37.1853 25.4818C39.7702 25.2922 42.4067 25.1888 45.095 25.1888C47.7832 25.1888 50.437 25.2922 53.0047 25.4818C54.4694 27.6531 55.8652 29.8761 57.1921 32.1507C58.519 34.4254 59.7598 36.7518 60.9316 39.1126C59.777 41.4907 58.5363 43.8343 57.2094 46.1435C55.8997 48.4354 54.5039 50.6584 53.0391 52.8641C50.4715 53.0537 47.8005 53.1398 45.095 53.1398C42.3895 53.1398 39.7702 53.0537 37.237 52.8986C35.7378 50.7101 34.3247 48.4698 32.9978 46.1779C31.6709 43.886 30.4474 41.5596 29.2929 39.1816ZM60.4146 48.0046C61.2935 46.4881 62.1206 44.9544 62.9305 43.4035C64.0334 45.9022 64.9984 48.4354 65.8428 51.0375C63.1718 51.6406 60.4663 52.1059 57.7436 52.4161C58.6741 50.9685 59.553 49.4865 60.4146 48.0046ZM62.8961 34.8218C62.0861 33.3053 61.259 31.7889 60.3974 30.3069C59.553 28.8421 58.6741 27.3946 57.7608 25.9643C60.5352 26.3089 63.189 26.7742 65.6705 27.3429C64.8778 29.8933 63.9473 32.3748 62.8961 34.8218ZM45.1294 15.4353C46.9389 17.3998 48.6449 19.4677 50.2302 21.6045C46.8182 21.4494 43.389 21.4494 39.977 21.6045C41.6657 19.3815 43.4062 17.3136 45.1294 15.4353ZM25.1398 4.87181C28.0349 3.18303 34.4626 5.59557 41.2349 11.5925C41.6657 11.9716 42.0965 12.3851 42.5446 12.7987C39.8736 15.6765 37.4093 18.7439 35.1519 21.9491C31.2573 22.2938 27.3973 22.8969 23.5717 23.7413C23.3477 22.8625 23.1581 21.9664 22.9686 21.0703C21.3487 12.7298 22.4171 6.43996 25.1398 4.87181ZM20.9179 50.2965C20.1941 50.0897 19.4876 49.8657 18.7811 49.6244C15.1106 48.4698 10.9403 46.6432 7.92465 44.2479C6.18417 43.0416 5.01237 41.1805 4.68495 39.0954C4.68495 35.9419 10.1304 31.9095 17.9884 29.1695C18.9706 28.8249 19.9701 28.5147 20.9696 28.2217C22.1414 31.9612 23.5545 35.6317 25.1915 39.1816C23.5372 42.7831 22.1069 46.5053 20.9179 50.2965ZM41.0109 67.1842C38.1675 69.7863 34.8762 71.8542 31.2918 73.2673C29.379 74.1806 27.1733 74.2668 25.2088 73.4913C22.4688 71.9059 21.3315 65.8229 22.8824 57.6375C23.0719 56.6725 23.2787 55.7075 23.52 54.7597C27.3801 55.5868 31.2746 56.1555 35.2208 56.4484C37.4955 59.6709 39.9942 62.7555 42.6652 65.6506C42.1138 66.1848 41.5623 66.7017 41.0109 67.1842ZM45.2328 62.9968C43.4751 61.1012 41.7174 58.9988 40.0114 56.7414C41.6657 56.8103 43.3717 56.8448 45.095 56.8448C46.8699 56.8448 48.6104 56.8103 50.3336 56.7242C48.7483 58.9127 47.0422 60.9978 45.2328 62.9968ZM67.7556 68.1665C67.6005 70.2688 66.5666 72.2333 64.9123 73.5602C62.1723 75.1456 56.3305 73.0777 50.0235 67.6668C49.2997 67.0464 48.5759 66.3743 47.8349 65.685C50.4715 62.7727 52.9013 59.6881 55.107 56.4484C59.0532 56.121 62.9822 55.5179 66.8595 54.639C67.0319 55.3456 67.1869 56.0521 67.3248 56.7414C68.1692 60.4636 68.3071 64.3409 67.7556 68.1665ZM70.8919 49.6416C70.4094 49.7967 69.9269 49.9518 69.4272 50.0897C68.2209 46.333 66.7389 42.6625 65.0329 39.0954C66.6872 35.58 68.083 31.9612 69.2548 28.2562C70.1509 28.5147 71.0125 28.7904 71.8397 29.0661C79.87 31.8233 85.505 35.9246 85.505 39.0609C85.505 42.4385 79.4909 46.7983 70.8919 49.6416ZM45.095 47.0568C49.4548 47.0568 52.9874 43.5241 52.9874 39.1643C52.9874 34.8045 49.4548 31.2719 45.095 31.2719C40.7352 31.2719 37.2025 34.8045 37.2025 39.1643C37.2025 43.5241 40.7352 47.0568 45.095 47.0568Z" fill="#61DAFB"/>
</svg>
