<svg width="81" height="51" viewBox="0 0 81 51" fill="none" xmlns="http://www.w3.org/2000/svg">
<path d="M23.2151 18.9234C23.1276 21.876 24.5401 23.1767 24.5776 24.0091C24.5611 24.1783 24.506 24.341 24.4169 24.4835C24.3277 24.6261 24.2071 24.7444 24.0651 24.8285L22.4652 25.9992C22.2588 26.1483 22.0162 26.234 21.7652 26.2463C21.7152 26.2463 20.7402 26.4804 19.2028 22.9165C18.2664 24.135 17.0744 25.1143 15.7181 25.7794C14.3618 26.4445 12.8773 26.7777 11.3781 26.7536C9.34069 26.8706 3.82842 25.5569 4.11591 19.4437C3.91592 14.462 8.37823 11.3664 12.978 11.6265C13.8655 11.6265 15.6779 11.6786 18.8528 12.446V10.4169C19.1903 6.97006 17.0154 4.30364 13.253 4.70686C12.953 4.70686 10.8281 4.64182 7.52827 6.02055C6.60331 6.46279 6.49081 6.38475 6.17832 6.38475C5.25336 6.38475 5.62835 3.58826 5.81584 3.23708C6.46581 2.40463 10.3032 0.843803 14.053 0.869817C16.5677 0.639442 19.0685 1.44771 21.0152 3.12001C21.8077 4.04138 22.4123 5.12043 22.7926 6.2919C23.1729 7.46338 23.3209 8.70294 23.2276 9.93563V18.9494L23.2151 18.9234ZM12.4156 23.1376C16.4654 23.0726 18.1903 20.5363 18.5778 19.1705C18.8903 17.8568 18.8403 17.0374 18.8403 15.6066C17.6279 15.3075 15.8904 14.9693 13.8905 14.9693C11.9906 14.8262 8.54073 15.6977 8.67822 19.1705C8.52823 21.3557 10.0657 23.2547 12.4281 23.1376H12.4156ZM33.7772 26.1422C32.7897 26.2333 32.3397 25.5049 32.1898 24.7895L25.965 3.36714C25.84 3.00295 25.765 2.62575 25.7275 2.24855C25.7151 2.16986 25.718 2.08939 25.7359 2.01186C25.7538 1.93433 25.7864 1.86131 25.8318 1.79708C25.8772 1.73286 25.9345 1.67873 26.0003 1.63787C26.0661 1.59702 26.1391 1.57027 26.215 1.55918C26.24 1.55918 25.9525 1.55918 29.0024 1.55918C30.1023 1.44212 30.4523 2.3396 30.5773 2.9119L35.0396 21.2256L39.1895 2.9119C39.252 2.49568 39.552 1.46813 40.7894 1.5852H42.9393C43.2143 1.55918 44.3268 1.52016 44.5267 2.93792L48.7016 21.4858L53.2889 2.93792C53.3514 2.65176 53.6264 1.45513 54.8763 1.5852H57.3387C57.4512 1.57219 58.1137 1.48114 58.0012 2.70379C57.9512 2.95092 58.4262 1.31205 51.4015 24.8025C51.2515 25.5179 50.8015 26.2463 49.814 26.1553H47.4766C46.1142 26.3113 45.9142 24.8936 45.8892 24.7505L41.7519 6.91803L37.652 24.7375C37.627 24.8806 37.4395 26.2853 36.0646 26.1422H33.7772ZM67.9633 26.8706C67.2258 26.8706 63.726 26.8316 60.7886 25.2708C60.4971 25.1421 60.2489 24.9264 60.0754 24.6508C59.9018 24.3753 59.8107 24.0524 59.8136 23.723V22.3182C59.8136 21.2126 60.5886 21.4207 60.9136 21.5508C62.1635 22.0841 62.976 22.4743 64.5134 22.7995C69.1007 23.775 71.1131 22.5003 71.6006 22.2142C73.2506 21.1996 73.3756 18.8714 72.2631 17.6617C70.9507 16.5171 70.3257 16.4781 65.6259 14.9303C65.0509 14.7612 60.1636 13.1613 60.1511 8.11467C60.0761 4.44672 63.2885 0.804783 68.8382 0.830796C70.4257 0.830796 74.638 1.36408 75.788 2.85987C75.9629 3.13302 76.0379 3.45819 76.0254 3.77036V5.08406C76.0254 5.65636 75.8255 5.95552 75.413 5.95552C74.4505 5.83846 72.7381 4.49875 69.2632 4.55077C68.4008 4.49875 64.2759 4.66784 64.4634 7.8025C64.4134 10.2738 67.7883 11.1973 68.1758 11.3014C72.7381 12.7321 74.263 12.9662 76.0629 15.1514C78.2004 18.0519 77.0504 21.4337 76.6129 22.3572C74.2255 27.2348 68.0633 26.8316 67.9508 26.8316L67.9633 26.8706ZM72.9881 40.5149C64.2384 47.2395 51.5265 50.8294 40.6769 50.8294C26.0351 50.9286 11.8873 45.3238 1.01604 35.117C0.203569 34.3496 0.916039 33.296 1.916 33.8814C13.9771 41.0594 27.6325 44.8305 41.5269 44.8202C51.9032 44.7605 62.166 42.568 71.7256 38.3687C73.2006 37.7184 74.4505 39.3833 72.9881 40.5019V40.5149ZM76.6379 36.1836C75.513 34.6878 69.2257 35.4812 66.4133 35.8324C65.5634 35.9365 65.4259 35.169 66.1884 34.5967C71.2006 30.9288 79.4253 31.9823 80.3628 33.218C81.3127 34.4537 80.1003 43.0252 75.413 47.1224C74.688 47.7597 74.0005 47.4216 74.3255 46.5891C75.3755 43.8186 77.7504 37.6794 76.6254 36.1836H76.6379Z" fill="#FF9900"/>
</svg>
