<svg width="60" height="50" viewBox="0 0 60 50" fill="none" xmlns="http://www.w3.org/2000/svg">
<path d="M34.8577 18.9105C34.8577 16.4434 33.1922 15.0815 30.2669 15.0815H24.8861V23.0297H29.4235C32.9253 23.0185 34.8577 21.545 34.8577 18.9105ZM54.4484 17.4816C53.4342 14.0322 53.2847 9.80129 53.4021 6.53048C53.5196 3.1257 50.9786 0 47.5623 0H12.4591C9.03203 0 6.50178 3.13686 6.61922 6.53048C6.72598 9.80129 6.58719 14.0322 5.57295 17.4816C4.54804 20.9422 2.82918 23.1302 0 23.4092V26.5908C2.81851 26.8698 4.54804 29.0578 5.57295 32.5184C6.58719 35.9678 6.73665 40.1987 6.61922 43.4695C6.50178 46.8743 9.0427 50 12.4591 50H47.5516C50.9786 50 53.5089 46.8631 53.3915 43.4695C53.2847 40.1987 53.4235 35.9678 54.4377 32.5184C55.4626 29.0578 57.1815 26.8698 60 26.5908V23.4092C57.1922 23.1302 55.4626 20.9422 54.4484 17.4816ZM31.3025 38.301H20.8505V11.699H31.2491C35.8719 11.699 38.9039 14.3112 38.9039 18.33C38.9039 21.1543 36.8648 23.6772 34.2598 24.1125V24.2576C37.8043 24.6595 40.1851 27.2271 40.1851 30.7658C40.1851 35.4655 36.8434 38.301 31.3025 38.301ZM30.2349 26.1666H24.8861V34.9185H30.4697C34.121 34.9185 36.0534 33.3891 36.0534 30.509C36.0534 27.6401 34.0676 26.1666 30.2349 26.1666Z" fill="#7952B3"/>
</svg>
