<svg width="80" height="51" viewBox="0 0 80 51" fill="none" xmlns="http://www.w3.org/2000/svg">
<path d="M43.7324 23.13H35.4705V16.502H43.7324V23.13ZM43.7324 0.33371H35.4705V7.10675H43.7324V0.33371ZM53.5067 16.4908H45.2448V23.1188H53.5067V16.4908ZM33.9706 8.44574H25.7086V15.1518H33.9706V8.44574ZM43.7324 8.44574H35.4705V15.1518H43.7324V8.44574ZM78.33 19.604C76.5302 18.5216 72.3804 18.1311 69.1932 18.6667C68.7807 15.9887 67.1058 13.6566 64.056 11.5589L62.3061 10.5212L61.1437 12.0833C58.8439 15.1853 58.2189 20.2958 60.6812 23.6656C59.5938 24.19 57.4565 24.9041 54.6317 24.8595H0.297859C-0.789566 30.5279 1.02281 37.8923 5.79749 42.947C10.4347 47.8454 17.3842 50.3337 26.4711 50.3337C46.1447 50.3337 60.7062 42.244 67.5183 27.5486C70.1931 27.5932 75.9677 27.5598 78.93 22.5051C79.1175 22.2261 79.7549 21.0322 79.9924 20.597L78.33 19.604ZM14.4469 16.4908H6.19746V23.1188H14.4594V16.4908H14.4469ZM24.2087 16.4908H15.9468V23.1188H24.2087V16.4908ZM33.9706 16.4908H25.7086V23.1188H33.9706V16.4908ZM24.2087 8.44574H15.9468V15.1518H24.2087V8.44574Z" fill="#2496ED"/>
</svg>
