<svg width="52" height="52" viewBox="0 0 52 52" fill="none" xmlns="http://www.w3.org/2000/svg">
<path d="M51.8693 12.3526C51.8606 12.3287 51.8504 12.3054 51.8385 12.2829C51.8251 12.2384 51.808 12.1951 51.7873 12.1533C51.7719 12.1289 51.7548 12.1056 51.736 12.0836C51.714 12.0523 51.69 12.0224 51.6642 11.994C51.6437 11.974 51.613 11.9541 51.5822 11.9342C51.553 11.909 51.5222 11.8857 51.4899 11.8644L41.616 6.35543C41.4913 6.28548 41.3499 6.24866 41.2059 6.24866C41.0619 6.24866 40.9205 6.28548 40.7958 6.35543L30.9219 11.8744C30.8895 11.8955 30.8587 11.9188 30.8296 11.9441C30.801 11.9623 30.7736 11.9823 30.7476 12.0039C30.7216 12.0321 30.6976 12.0621 30.6758 12.0936C30.6553 12.1135 30.6348 12.1434 30.6246 12.1633C30.6043 12.2052 30.5872 12.2485 30.5733 12.2928C30.5631 12.3127 30.5528 12.3327 30.5425 12.3626C30.5229 12.4307 30.5126 12.501 30.5118 12.5718V23.0518L22.2887 27.6543V7.13247C22.2883 7.0617 22.2779 6.99132 22.2579 6.92327C22.2477 6.90334 22.2374 6.87346 22.2272 6.85353C22.2133 6.81246 22.1961 6.77249 22.1759 6.73399C22.1656 6.7041 22.1349 6.68418 22.1246 6.66425C22.1026 6.63298 22.0786 6.60304 22.0529 6.5746C22.0266 6.55329 21.9992 6.53333 21.9708 6.51482C21.9415 6.48986 21.9107 6.46657 21.8786 6.44509L12.0047 0.926109C11.88 0.856161 11.7385 0.819336 11.5946 0.819336C11.4506 0.819336 11.3091 0.856161 11.1844 0.926109L1.31055 6.44509C1.27775 6.46566 1.24687 6.489 1.21827 6.51482C1.18964 6.53302 1.16225 6.55299 1.13625 6.5746C1.11021 6.60283 1.08623 6.63279 1.06447 6.66425C1.04397 6.69414 1.02346 6.71406 1.00296 6.73399C0.982515 6.7724 0.965369 6.81238 0.951689 6.85353C0.940042 6.87617 0.929771 6.89946 0.920929 6.92327C0.901396 6.99141 0.891057 7.06174 0.89017 7.13247V39.9774C0.88887 40.1185 0.926154 40.2574 0.998212 40.3799C1.07027 40.5024 1.17452 40.6042 1.3003 40.6747L21.0378 51.7127C21.0808 51.7327 21.1254 51.7493 21.1711 51.7625C21.1916 51.7725 21.2121 51.7824 21.2326 51.7924C21.3703 51.8283 21.5153 51.8283 21.653 51.7924C21.6735 51.7824 21.694 51.7725 21.7145 51.7725C21.7641 51.7567 21.8121 51.7367 21.858 51.7127L41.616 40.6747C41.7418 40.6042 41.8461 40.5024 41.9181 40.3799C41.9902 40.2574 42.0275 40.1185 42.0262 39.9774V29.4973L51.4797 24.2074C51.6054 24.1369 51.7097 24.0352 51.7817 23.9126C51.8538 23.7901 51.8911 23.6512 51.8898 23.5101V12.5618C51.8918 12.4915 51.8849 12.4212 51.8693 12.3526ZM11.5946 2.53996L19.8177 7.14243L11.5946 11.7449L3.37145 7.13247L11.5946 2.53996ZM20.6482 8.5172V28.5708L15.8804 31.2407L12.4251 33.1733V13.1197L17.1928 10.4498L20.6482 8.5172ZM20.6482 49.6406L2.55119 39.5191V8.5172L6.00654 10.4498L10.7743 13.1197V34.558C10.7757 34.5881 10.7791 34.618 10.7845 34.6477C10.7882 34.688 10.7951 34.7279 10.8051 34.7672C10.8161 34.7982 10.8298 34.8282 10.8461 34.8569C10.8568 34.8911 10.8706 34.9245 10.8871 34.9565C10.906 34.9842 10.9265 35.0108 10.9486 35.0362C10.9706 35.0644 10.9946 35.091 11.0204 35.1159C11.0409 35.1358 11.0716 35.1557 11.1024 35.1757C11.1316 35.2008 11.1624 35.2241 11.1947 35.2454L20.6482 40.4456V49.6406ZM21.4684 39.0609L13.2556 34.5481L21.8786 29.7264L31.3423 24.4366L39.5551 29.0291L33.5262 32.3763L21.4684 39.0609ZM40.3857 39.5191L22.2887 49.6406V40.4456L35.6897 33.0139L40.3857 30.4038V39.5191ZM40.3857 27.6543L36.9303 25.7217L32.1626 23.0518V13.9465L35.6179 15.8792L40.3857 18.549V27.6543ZM41.2059 17.1643L32.9828 12.5618L41.2059 7.95932L49.429 12.5618L41.2059 17.1643ZM42.0262 27.6543V18.549L46.8042 15.8792L50.2595 13.9465V23.0518L42.0262 27.6543Z" fill="#FF2D20"/>
</svg>
